<?xml version="1.0" standalone="no"?>
<!DOCTYPE svg PUBLIC "-//W3C//DTD SVG 20010904//EN"
 "http://www.w3.org/TR/2001/REC-SVG-20010904/DTD/svg10.dtd">
<svg version="1.0" xmlns="http://www.w3.org/2000/svg"
 width="3500.000000pt" height="2333.000000pt" viewBox="0 0 3500.000000 2333.000000"
 preserveAspectRatio="xMidYMid meet">

<g transform="translate(0.000000,2333.000000) scale(0.100000,-0.100000)"
fill="#000000" stroke="none">
<path d="M0 11665 l0 -11665 17500 0 17500 0 0 10200 c0 10193 0 10200 -20
10200 -11 0 -20 5 -20 10 0 6 -13 10 -30 10 -20 0 -30 5 -30 15 0 8 -4 15 -10
15 -5 0 -10 12 -10 28 0 15 -4 23 -8 17 -4 -5 -17 -11 -29 -12 -19 -2 -23 2
-24 25 -3 73 -4 77 -24 77 -11 0 -21 -7 -21 -15 -1 -8 -2 -23 -3 -32 0 -10 -8
-18 -17 -18 -8 0 -13 4 -9 9 3 5 0 13 -6 16 -5 4 -8 14 -4 23 3 8 0 19 -7 24
-20 12 -31 9 -24 -7 3 -9 -3 -19 -17 -26 -12 -7 -26 -17 -30 -23 -6 -8 -10 -7
-14 2 -3 7 -23 12 -49 12 -37 0 -44 3 -44 20 0 43 -36 15 -44 -34 -2 -16 -26
-18 -26 -2 0 12 -5 14 -25 6 -14 -5 -25 -6 -25 -2 -1 4 -7 -4 -15 -18 l-14
-25 -1 23 c0 15 -4 21 -11 16 -7 -4 -19 2 -28 14 -9 11 -32 24 -52 27 -35 6
-37 5 -41 -23 -4 -30 -4 -30 41 -27 25 2 38 1 29 -2 -25 -6 -23 -33 2 -33 22
0 27 -15 8 -26 -6 -4 -17 1 -24 11 -9 11 -26 18 -46 18 -47 0 -58 13 -58 68 0
27 -4 49 -10 49 -5 0 -10 -22 -10 -50 0 -38 -4 -50 -15 -50 -12 0 -14 7 -9 26
6 24 5 26 -16 19 -19 -6 -22 -4 -17 9 4 9 2 16 -3 16 -6 0 -10 -7 -10 -15 0
-8 -7 -15 -15 -15 -9 0 -15 9 -15 24 0 19 -5 23 -27 22 -16 -1 -28 -7 -28 -14
0 -21 -27 -32 -82 -32 -28 0 -55 -4 -58 -10 -11 -18 -35 -11 -35 10 0 15 7 20
25 20 29 0 33 15 8 28 -12 7 -21 5 -32 -9 -9 -10 -36 -22 -60 -25 -39 -6 -43
-5 -39 12 2 13 13 20 36 22 17 2 32 8 32 14 0 6 -14 8 -37 4 -21 -3 -48 -6
-60 -6 -20 0 -23 -5 -23 -39 l0 -39 50 -7 c33 -5 55 -3 64 5 10 7 16 8 21 0
11 -17 -5 -30 -36 -30 -17 0 -32 -6 -35 -15 -7 -18 -24 -20 -24 -2 0 9 -23 14
-82 16 -89 3 -102 6 -95 25 3 7 1 19 -3 26 -7 11 -11 11 -23 1 -19 -15 -30 0
-22 32 5 20 2 25 -19 29 -13 3 -28 2 -33 -1 -4 -3 -8 -46 -9 -96 l0 -90 -41
-3 c-29 -2 -42 1 -46 12 -4 9 -1 16 6 16 7 1 2 9 -10 19 -13 11 -23 26 -23 34
0 9 -6 18 -13 20 -9 4 -9 6 1 6 6 1 12 6 12 11 0 7 -21 10 -53 9 -60 -2 -75
-8 -56 -20 10 -6 8 -9 -9 -9 -15 0 -26 8 -32 25 -5 14 -14 25 -20 25 -5 0 -10
16 -10 35 0 28 -4 35 -19 35 -31 0 -34 -18 -12 -56 25 -41 27 -64 6 -64 -8 0
-14 5 -13 11 3 12 -61 39 -110 46 -19 3 -36 12 -39 19 -3 8 -11 14 -18 14 -7
0 -15 5 -17 10 -2 7 -13 6 -31 -2 -25 -12 -27 -17 -25 -63 l3 -50 33 3 c38 4
62 -12 62 -40 0 -17 -2 -18 -15 -5 -8 9 -23 13 -34 10 -10 -2 -33 3 -50 11
-28 15 -32 15 -37 1 -8 -20 -33 -19 -41 1 -4 10 0 20 10 26 34 19 10 98 -29
98 -28 0 -39 -33 -31 -85 3 -18 3 -36 0 -39 -12 -11 -53 27 -53 50 0 21 -5 24
-39 24 -21 0 -44 -6 -51 -15 -16 -19 -85 -16 -85 5 0 10 13 17 40 20 38 5 40
7 43 43 2 20 -1 37 -7 37 -13 0 -31 -32 -31 -54 0 -3 -14 0 -30 6 -22 7 -34 7
-43 -1 -10 -8 -17 -7 -25 1 -9 9 -12 9 -12 0 0 -7 -6 -11 -12 -10 -7 2 -11 -4
-9 -12 11 -43 -23 -127 -40 -98 -4 7 -3 15 2 19 6 3 9 26 7 50 -2 35 -7 44
-21 42 -13 -1 -17 4 -13 14 6 14 3 13 -18 -1 -16 -10 -27 -12 -31 -6 -4 6 -10
8 -15 5 -4 -3 -10 4 -13 15 -6 23 -34 37 -47 24 -5 -5 -10 -18 -12 -29 -2 -15
4 -21 27 -26 l30 -7 -28 -1 c-22 -1 -29 -7 -34 -31 -9 -48 -23 -46 -23 4 0 43
-10 63 -24 49 -11 -12 -42 -10 -54 3 -9 10 -7 14 8 19 30 9 24 32 -11 44 -61
21 -97 7 -44 -17 14 -6 25 -16 25 -22 0 -15 -40 -12 -72 4 -24 13 -65 20 -92
17 -15 -2 26 -41 43 -41 12 0 12 -3 3 -12 -9 -9 -19 -7 -42 10 -16 12 -34 22
-40 22 -5 0 -10 5 -10 10 0 6 -8 10 -19 10 -12 0 -20 -9 -24 -26 -4 -20 1 -27
21 -35 33 -13 27 -16 -35 -21 -40 -4 -53 -1 -53 9 0 7 7 13 15 13 18 0 18 5 5
31 -7 12 -21 19 -39 19 -28 0 -56 -20 -46 -33 3 -4 2 -5 -2 -2 -3 3 -13 -1
-21 -8 -12 -9 -16 -9 -19 0 -2 7 -11 9 -19 6 -9 -3 -14 1 -14 12 0 11 -5 15
-15 11 -8 -3 -15 0 -15 7 0 7 -8 2 -18 -11 -17 -22 -17 -22 -14 23 4 42 -9 62
-21 33 -4 -10 -6 -10 -6 0 -1 6 -10 12 -21 12 -14 0 -20 -7 -20 -24 0 -44 -9
-57 -31 -43 -10 6 -19 17 -19 24 0 7 -11 13 -25 13 -14 0 -25 4 -25 10 0 20
-45 60 -68 60 -22 0 -23 -2 -17 -41 5 -29 4 -40 -4 -35 -6 4 -11 14 -11 22 0
8 -4 14 -9 14 -5 0 -12 8 -15 18 -3 9 -13 28 -21 42 -12 21 -15 22 -15 6 0
-15 -3 -16 -14 -7 -11 9 -15 8 -20 -5 -9 -23 4 -64 20 -64 8 0 14 -4 14 -9 0
-5 -20 -11 -44 -12 -32 -3 -42 -1 -39 9 3 6 11 12 18 12 10 0 11 9 3 43 -14
55 -28 70 -28 30 0 -35 -17 -53 -26 -29 -3 8 -12 12 -20 9 -9 -3 -14 1 -14 12
0 14 -2 14 -15 3 -8 -7 -21 -18 -29 -25 -10 -9 -13 -24 -9 -53 4 -26 2 -40 -6
-40 -6 0 -11 14 -11 30 0 24 -4 30 -20 30 -19 0 -20 4 -14 36 5 26 3 39 -7 45
-22 14 -29 11 -29 -11 0 -16 -7 -20 -33 -20 -20 0 -41 -8 -51 -19 -30 -33 -75
-14 -89 38 -7 29 16 91 35 92 15 1 -21 17 -39 18 -8 1 -13 -11 -13 -29 0 -23
-4 -30 -20 -30 -10 0 -23 7 -28 16 -19 34 -72 -13 -72 -64 0 -13 3 -12 16 6
31 44 74 21 74 -40 0 -37 -1 -38 -34 -38 -26 0 -36 5 -41 20 -7 21 -25 28 -25
10 0 -5 -4 -10 -10 -10 -14 0 -25 51 -13 59 7 3 7 15 2 29 -9 23 -24 29 -34
12 -11 -18 -35 -11 -35 10 0 17 -7 20 -40 20 -29 0 -40 -4 -40 -15 0 -8 -4
-15 -10 -15 -5 0 -10 -6 -10 -14 0 -17 34 -27 70 -19 27 5 28 4 26 -41 0 -25
-4 -46 -8 -46 -5 0 -8 -9 -8 -21 0 -11 -4 -17 -10 -14 -6 4 -10 14 -9 23 1 10
0 22 -1 27 -2 6 -3 19 -4 30 -1 15 -12 23 -45 31 -25 6 -47 17 -49 25 -8 25
-43 69 -55 69 -7 0 -6 -4 3 -10 12 -8 12 -10 -2 -15 -10 -4 -20 -15 -23 -26
-7 -22 -45 -26 -45 -4 0 8 -7 15 -16 15 -8 0 -13 4 -10 9 9 14 -4 41 -20 41
-8 0 -23 -5 -34 -12 -15 -10 -22 -9 -39 6 -16 15 -20 15 -28 3 -5 -9 -28 -16
-55 -18 -52 -4 -60 1 -25 16 15 7 22 18 22 38 -1 15 3 27 7 27 4 0 -6 14 -21
31 -32 34 -66 36 -66 4 0 -15 6 -19 23 -17 12 2 22 -2 22 -7 0 -6 -11 -11 -24
-11 -21 0 -24 -5 -23 -26 1 -15 -4 -29 -11 -32 -9 -2 -13 3 -12 14 4 37 0 39
-20 9 -12 -18 -17 -38 -14 -52 4 -14 2 -23 -5 -23 -6 0 -11 4 -11 10 0 20 -33
47 -51 43 -21 -6 -25 7 -8 24 12 12 4 33 -12 33 -5 0 -9 -7 -9 -15 0 -8 -9
-15 -20 -15 -11 0 -20 7 -20 15 0 8 -4 15 -10 15 -5 0 -10 -7 -10 -15 0 -8 -4
-15 -10 -15 -5 0 -10 16 -10 35 0 19 -4 35 -9 35 -11 0 -21 49 -11 55 9 5 -40
65 -52 65 -12 0 -10 -38 2 -45 16 -10 11 -58 -8 -80 -10 -12 -32 -22 -52 -23
-19 -1 -43 -5 -52 -8 -12 -3 -18 0 -18 10 0 12 10 16 34 16 45 0 55 16 15 24
-17 3 -28 10 -25 15 7 10 -19 23 -28 14 -3 -4 -6 -24 -6 -45 0 -21 -3 -38 -8
-38 -13 0 -8 90 6 99 11 7 11 9 -1 14 -20 7 -27 -1 -28 -32 0 -14 -3 -20 -6
-13 -7 17 -21 15 -27 -5 -4 -15 -5 -15 -4 2 1 53 -3 63 -27 69 -14 4 -25 11
-25 16 0 6 -7 10 -15 10 -9 0 -15 -9 -15 -21 0 -19 -5 -21 -44 -17 l-45 3 -6
-47 c-7 -47 -18 -67 -29 -50 -3 5 -16 7 -30 5 -27 -5 -43 12 -28 30 13 17 10
89 -4 94 -7 2 -17 -10 -22 -27 -14 -38 -29 -38 -37 0 -4 17 -13 30 -20 30 -8
0 -12 -6 -9 -13 3 -8 -2 -20 -12 -27 -14 -12 -21 -11 -52 6 -24 13 -36 26 -34
37 3 20 -14 23 -21 5 -4 -10 -6 -10 -6 0 -1 14 -31 17 -31 2 0 -5 -11 -10 -25
-10 -14 0 -25 6 -25 13 0 20 -28 73 -45 87 -13 11 -15 8 -15 -18 0 -17 5 -34
10 -37 16 -10 12 -75 -5 -82 -21 -7 -30 3 -18 19 6 8 7 22 2 33 -4 11 -8 15
-8 10 -1 -16 -81 -13 -81 2 0 15 -24 17 -48 4 -9 -5 -41 -5 -69 -2 -32 5 -57
3 -63 -3 -16 -16 -24 2 -12 29 7 15 8 25 2 25 -6 0 -10 7 -10 15 0 12 -7 14
-27 9 -38 -9 -44 -14 -37 -26 5 -7 1 -9 -9 -5 -20 7 -47 -1 -47 -14 0 -5 16
-9 35 -9 19 0 35 -5 35 -11 0 -6 -17 -9 -42 -7 -36 2 -44 7 -46 26 -2 14 2 22
11 22 10 0 13 7 10 19 -6 24 -31 35 -47 22 -16 -14 -40 3 -33 23 4 10 1 16 -7
16 -8 0 -16 7 -20 15 -7 20 -25 19 -33 -1 -4 -11 2 -23 17 -34 l23 -18 -21
-11 c-13 -7 -22 -21 -22 -36 0 -13 -5 -27 -10 -30 -5 -3 -10 -2 -10 3 0 6 -8
8 -19 5 -10 -3 -22 1 -26 7 -10 16 -12 100 -2 100 4 0 7 5 7 10 0 6 -7 10 -15
10 -8 0 -15 3 -15 8 0 4 -20 6 -45 4 -28 -3 -45 -9 -45 -17 0 -7 -7 -18 -16
-26 -21 -17 -34 3 -34 54 l0 37 -65 0 c-59 0 -65 -2 -65 -21 0 -12 -4 -17 -11
-14 -6 4 -8 13 -5 21 4 10 -3 14 -23 14 -21 0 -30 -6 -35 -22 l-7 -23 -11 23
c-9 17 -20 22 -50 22 -27 0 -38 4 -38 15 0 8 -4 15 -10 15 -5 0 -10 -7 -10
-15 0 -9 -9 -15 -25 -15 -16 0 -25 6 -25 15 0 8 -4 15 -9 15 -6 0 -7 -24 -4
-55 4 -38 2 -55 -6 -55 -6 0 -11 4 -11 8 0 5 -11 14 -26 20 -23 11 -26 10 -35
-18 -13 -37 -31 -40 -25 -4 3 14 1 35 -4 47 -7 19 -9 16 -9 -15 -1 -27 -5 -38
-16 -38 -11 0 -15 11 -15 40 0 22 -4 40 -10 40 -5 0 -10 -18 -10 -40 0 -75
-18 -40 -25 48 -4 48 -12 92 -17 99 -5 7 -8 25 -6 40 3 24 -1 28 -24 31 -26 3
-27 1 -21 -31 3 -20 1 -37 -6 -41 -6 -4 -11 0 -11 8 0 11 -9 16 -30 16 -16 0
-30 -4 -30 -10 0 -5 -9 -10 -20 -10 -18 0 -20 -7 -20 -55 l0 -55 -45 0 -45 0
0 45 0 45 40 0 c22 0 40 5 40 11 0 6 -10 10 -22 9 -13 -1 -30 -2 -39 -1 -19 1
-30 42 -17 65 6 10 5 16 -1 16 -16 0 -28 -32 -26 -67 3 -35 -18 -51 -41 -32
-9 7 -14 8 -14 1 0 -5 -11 -9 -25 -8 -14 0 -25 6 -25 11 0 6 -3 6 -8 -1 -4 -5
-16 -10 -27 -11 -11 0 -27 -2 -35 -5 -8 -3 -12 -3 -7 -1 4 3 7 11 7 19 0 8 7
14 16 14 10 0 14 7 12 22 -4 29 -25 34 -33 9 -9 -29 -60 -30 -52 -1 3 11 0 20
-6 20 -8 0 -7 4 1 12 9 9 9 15 -2 27 -8 9 -16 27 -18 40 -1 13 -12 30 -24 37
-20 14 -20 13 -16 -18 3 -18 11 -38 18 -46 9 -8 14 -36 14 -71 0 -54 -2 -58
-22 -56 -20 1 -23 8 -26 48 -2 28 1 47 7 47 6 0 11 9 11 20 0 11 -4 20 -10 20
-5 0 -10 -9 -10 -19 0 -11 -4 -23 -10 -26 -5 -3 -11 -25 -12 -48 l-1 -42 -4
40 c-3 22 -11 47 -18 55 -8 8 -15 35 -17 60 -3 42 -5 45 -41 53 -33 8 -42 6
-62 -13 -17 -16 -24 -18 -29 -8 -3 7 -3 -4 0 -24 5 -33 3 -37 -18 -40 -18 -2
-22 -8 -20 -30 3 -34 -15 -45 -36 -24 -16 16 -16 18 1 27 9 6 15 14 12 20 -4
5 1 19 9 31 18 25 22 88 5 88 -5 0 -7 5 -4 10 9 14 -13 40 -34 40 -9 0 -24 9
-34 20 -16 19 -16 21 3 40 11 11 28 20 38 20 16 1 16 1 0 11 -10 5 -18 17 -18
24 0 9 -10 15 -25 15 -18 0 -26 -7 -31 -25 -5 -21 -12 -25 -46 -25 -35 0 -40
2 -35 20 3 11 1 18 -4 14 -5 -3 -9 2 -9 11 0 11 -5 15 -15 12 -18 -8 -22 -1
-30 53 -10 66 -15 62 -15 -12 0 -51 -5 -71 -20 -89 -10 -13 -20 -19 -21 -14 0
6 -2 29 -4 52 -4 48 -11 63 -31 63 -8 0 -14 6 -14 13 0 37 -114 42 -125 6 -8
-25 -35 -24 -35 1 0 13 -7 20 -19 20 -11 0 -23 5 -27 12 -5 8 3 9 29 5 21 -3
37 -3 37 0 0 10 -43 43 -55 43 -7 0 -15 7 -19 15 -5 15 -56 22 -56 7 0 -4 7
-18 16 -30 13 -20 13 -22 0 -22 -8 0 -20 -9 -26 -20 -6 -11 -17 -20 -25 -20
-9 0 -15 -10 -15 -25 0 -15 6 -25 14 -25 26 0 26 -17 2 -43 -24 -25 -41 -24
-41 3 0 8 -7 15 -15 15 -8 0 -14 -8 -14 -17 1 -10 -4 -18 -11 -18 -14 0 -47
34 -40 42 3 3 -1 11 -10 18 -13 10 -18 10 -33 -2 -9 -9 -27 -19 -39 -22 -26
-8 -31 -36 -8 -36 15 0 21 -21 9 -33 -3 -3 -24 12 -46 34 -22 21 -45 39 -51
39 -6 0 -1 9 11 21 20 18 24 19 38 5 20 -20 24 -20 54 4 20 15 23 21 13 31 -7
7 -13 26 -13 43 0 27 -1 28 -17 13 -14 -12 -20 -13 -29 -3 -17 18 -28 74 -26
126 2 39 -3 50 -33 83 -39 41 -62 50 -43 15 7 -12 19 -28 26 -36 15 -17 15
-18 -3 -67 l-14 -40 -1 32 c0 17 -5 35 -10 38 -8 5 -7 11 0 20 7 8 9 19 6 24
-10 15 -37 1 -34 -17 2 -8 -3 -17 -9 -19 -7 -3 -13 3 -13 12 0 10 -11 26 -25
37 -14 11 -25 27 -25 35 0 14 -2 14 -18 0 -23 -21 -46 -22 -39 -3 3 8 -1 20
-10 28 -20 16 -143 48 -143 36 0 -4 7 -8 15 -8 8 0 19 -9 25 -20 6 -11 18 -20
26 -20 9 0 14 -6 12 -12 -6 -16 -48 -23 -48 -9 0 6 -9 11 -20 11 -22 0 -60 18
-73 35 -4 6 -6 25 -3 42 7 46 -10 50 -35 9 -12 -20 -25 -36 -29 -36 -21 0 -40
14 -39 29 0 10 2 11 6 4 8 -21 20 -15 18 8 -1 16 -13 25 -44 36 -24 8 -44 13
-46 11 -2 -2 -6 -15 -10 -31 -6 -23 -4 -27 14 -27 14 0 23 -8 27 -25 6 -24 29
-34 36 -17 2 5 17 5 34 0 24 -6 32 -13 32 -32 0 -23 -1 -23 -29 -7 -24 13 -31
14 -38 2 -6 -9 -11 -10 -15 -2 -4 6 -22 18 -39 26 -18 8 -40 20 -49 27 -13 10
-22 9 -41 -1 -14 -7 -31 -11 -39 -8 -7 3 -3 6 10 6 38 2 24 21 -15 21 -47 0
-62 9 -60 35 2 15 -6 21 -38 26 -23 4 -45 3 -52 -3 -9 -7 -18 -7 -27 2 -26 20
-61 8 -64 -22 -4 -35 -18 -36 -26 -3 -4 14 -10 23 -15 21 -13 -8 -20 41 -8 53
17 17 -39 24 -88 12 -57 -14 -65 -14 -65 4 0 8 8 15 19 15 10 0 24 7 31 15 9
11 10 15 1 15 -8 0 -10 8 -6 20 5 14 1 22 -12 26 -10 3 -28 10 -40 16 -11 6
-26 7 -32 3 -24 -14 -41 16 -41 71 l0 54 -25 -16 c-28 -18 -32 -45 -10 -64 8
-7 15 -20 15 -30 0 -20 27 -46 37 -37 11 12 32 -14 26 -31 -9 -22 -23 -32 -50
-32 -13 0 -23 -5 -23 -11 0 -5 -5 -7 -10 -4 -8 5 -7 11 1 21 14 17 9 17 -25 4
-14 -5 -32 -7 -39 -4 -19 7 -16 59 3 60 8 1 21 2 28 3 18 2 15 31 -4 31 -11 0
-15 6 -11 19 3 13 -3 22 -19 30 -13 6 -24 15 -24 20 0 5 -8 11 -18 13 -15 4
-18 1 -14 -18 4 -22 1 -24 -37 -24 -22 0 -41 5 -41 10 0 6 -18 10 -40 10 -22
0 -40 5 -40 10 0 6 7 10 15 10 17 0 21 65 6 89 -8 13 -12 13 -26 1 -12 -10
-16 -26 -13 -57 2 -33 0 -42 -10 -38 -8 3 -16 5 -18 5 -2 0 -4 18 -4 39 0 26
-5 41 -15 45 -20 7 -28 -14 -23 -60 l4 -35 -37 6 c-21 4 -47 2 -58 -4 -19 -11
-20 -9 -15 17 5 24 2 30 -18 37 -12 4 -29 6 -35 6 -7 -1 -13 5 -13 14 0 9 -9
15 -25 15 -18 0 -25 -5 -25 -19 0 -14 -6 -17 -24 -14 -26 5 -35 27 -36 83 -1
33 -1 34 -15 16 -15 -20 -15 -19 -35 1 -20 22 -20 22 0 28 11 4 45 3 76 -1 51
-6 56 -5 52 12 -2 14 -13 20 -38 22 -19 1 -62 5 -95 10 -54 6 -62 5 -77 -15
-10 -11 -18 -26 -18 -32 0 -16 -11 -13 -26 7 -17 22 -18 43 -1 36 8 -3 22 7
33 21 10 14 26 25 36 25 21 0 50 28 42 41 -6 10 -15 71 -15 102 0 20 0 20 -30
4 -51 -26 -52 -28 -33 -49 13 -14 15 -21 7 -26 -8 -5 -9 -13 -3 -22 17 -26 11
-50 -10 -50 -11 0 -20 -4 -20 -10 0 -5 -12 -10 -26 -10 -14 0 -23 4 -19 10 3
6 15 10 26 10 23 0 27 38 4 46 -8 4 -24 26 -34 50 -19 43 -51 60 -51 28 0 -8
-4 -12 -10 -9 -5 3 -10 19 -10 35 0 37 -6 40 -89 47 -69 6 -70 6 -73 37 -2 24
-8 32 -28 35 -33 4 -37 13 -31 69 7 58 3 122 -8 122 -12 0 -21 -37 -21 -83 0
-48 -18 -86 -31 -66 -5 8 -9 31 -9 52 0 26 -4 37 -15 37 -8 0 -15 -4 -15 -10
0 -5 -7 -10 -15 -10 -8 0 -15 -7 -15 -15 0 -17 -12 -19 -26 -5 -6 6 -32 13
-57 15 -45 3 -47 3 -46 -23 0 -24 1 -25 9 -7 7 17 9 15 9 -12 1 -18 1 -36 2
-40 0 -4 -4 -9 -9 -11 -5 -1 -13 17 -16 42 -9 61 -23 66 -34 14 -9 -40 -10
-37 -11 40 -1 47 -5 82 -11 82 -5 0 -10 -18 -10 -40 0 -36 -2 -40 -25 -40 -22
0 -25 4 -25 40 0 37 -13 55 -22 29 -2 -7 -17 -7 -48 0 -25 6 -100 11 -167 11
-101 0 -121 -2 -117 -14 3 -8 1 -17 -5 -20 -5 -4 -12 3 -16 14 l-6 20 -11260
0 -11259 0 0 -11665z m22820 11590 c0 -8 -5 -17 -11 -21 -14 -8 -29 14 -22 32
6 16 33 7 33 -11z m360 -100 c0 -3 -9 -5 -20 -5 -15 0 -20 7 -20 27 l0 27 20
-22 c11 -12 20 -24 20 -27z m-60 9 c0 -17 -22 -14 -28 4 -2 7 3 12 12 12 9 0
16 -7 16 -16z m-240 -34 c0 -5 -7 -10 -15 -10 -8 0 -15 5 -15 10 0 6 7 10 15
10 8 0 15 -4 15 -10z m360 -25 c0 -8 -7 -15 -15 -15 -16 0 -20 12 -8 23 11 12
23 8 23 -8z m-90 -65 c0 -5 -7 -10 -15 -10 -8 0 -15 5 -15 10 0 6 7 10 15 10
8 0 15 -4 15 -10z m-60 -50 c12 -8 11 -10 -7 -10 -13 0 -23 5 -23 10 0 13 11
13 30 0z m443 -101 c-7 -7 -12 -3 -15 16 -5 25 -4 25 10 11 12 -11 13 -19 5
-27z m-243 -27 c0 -13 -12 -22 -22 -16 -10 6 -1 24 13 24 5 0 9 -4 9 -8z m210
-2 c0 -5 -18 -10 -41 -10 -24 0 -38 4 -34 10 3 6 22 10 41 10 19 0 34 -4 34
-10z m-150 -4 c0 -3 -4 -8 -10 -11 -5 -3 -10 -1 -10 4 0 6 5 11 10 11 6 0 10
-2 10 -4z m-180 -31 c0 -8 -4 -15 -10 -15 -5 0 -10 7 -10 15 0 8 5 15 10 15 6
0 10 -7 10 -15z m140 -21 c0 -8 -4 -12 -10 -9 -5 3 -10 10 -10 16 0 5 5 9 10
9 6 0 10 -7 10 -16z m253 -12 c2 -4 7 -19 11 -34 5 -24 3 -28 -14 -28 -17 0
-19 4 -14 25 4 18 1 27 -10 31 -9 3 -16 13 -16 20 0 11 4 12 19 4 11 -5 22
-13 24 -18z m147 -61 c0 -27 -15 -41 -41 -41 -22 0 -29 5 -29 19 0 11 6 22 13
24 21 9 57 7 57 -2z m-100 -26 c0 -9 -9 -15 -22 -15 -22 1 -23 1 -4 15 25 19
26 19 26 0z m-65 -5 c3 -5 -1 -10 -9 -10 -9 0 -16 5 -16 10 0 6 4 10 9 10 6 0
13 -4 16 -10z m252 -75 c10 -23 9 -25 -13 -25 -13 0 -24 -4 -24 -10 0 -5 -7
-10 -15 -10 -11 0 -13 8 -8 33 10 52 38 58 60 12z m89 0 c3 -8 3 -19 -1 -25
-10 -16 -35 7 -28 26 7 18 22 18 29 -1z m114 -61 c0 -2 -7 -4 -15 -4 -8 0 -15
4 -15 10 0 5 7 7 15 4 8 -4 15 -8 15 -10z m73 9 c-7 -2 -19 -2 -25 0 -7 3 -2
5 12 5 14 0 19 -2 13 -5z m-233 -13 c0 -5 -4 -10 -10 -10 -5 0 -10 5 -10 10 0
6 5 10 10 10 6 0 10 -4 10 -10z m-202 -17 c-4 -22 -22 -20 -26 1 -2 10 3 16
13 16 10 0 15 -7 13 -17z m275 -20 c-7 -2 -19 -2 -25 0 -7 3 -2 5 12 5 14 0
19 -2 13 -5z m1227 -213 c0 -5 -2 -10 -4 -10 -3 0 -8 5 -11 10 -3 6 -1 10 4
10 6 0 11 -4 11 -10z m-543 -72 c-3 -8 -6 -5 -6 6 -1 11 2 17 5 13 3 -3 4 -12
1 -19z m283 3 c0 -5 -18 -8 -40 -8 -52 2 -52 17 0 17 22 0 40 -4 40 -9z m77 3
c-3 -3 -12 -4 -19 -1 -8 3 -5 6 6 6 11 1 17 -2 13 -5z m137 -29 c8 -23 -16
-28 -48 -11 -24 12 -25 15 -9 19 35 9 51 7 57 -8z m276 -37 c0 -17 -38 -7 -42
10 -5 17 -2 17 18 8 13 -6 24 -14 24 -18z m180 -15 c0 -10 -35 -32 -51 -33 -9
0 -22 -7 -29 -15 -7 -9 -19 -14 -26 -11 -7 3 -17 -8 -25 -27 l-12 -32 -10 28
c-13 34 -27 35 -27 2 0 -44 -18 -27 -22 20 -2 27 1 44 7 42 5 -2 24 2 42 10
41 16 46 16 40 -1 -4 -9 2 -12 18 -11 29 4 65 23 65 35 0 5 7 7 15 4 8 -4 15
-9 15 -11z m-341 -19 c-14 -18 -24 -11 -15 11 3 9 11 13 16 10 8 -5 7 -11 -1
-21z m65 1 c11 -8 14 -15 8 -15 -7 0 -12 -7 -12 -16 0 -23 -17 -8 -22 21 -6
29 -1 30 26 10z m250 -91 c9 -24 7 -27 -9 -10 -17 17 -19 26 -6 26 5 0 12 -7
15 -16z m190 -69 c3 -8 1 -15 -4 -15 -6 0 -10 7 -10 15 0 8 2 15 4 15 2 0 6
-7 10 -15z m388 -88 c3 -29 8 -31 96 -27 24 1 42 -3 42 -9 0 -6 -19 -12 -42
-13 l-43 -1 43 -4 c37 -4 47 -11 43 -35 0 -4 5 -5 13 -2 20 8 29 -12 21 -46
-8 -35 -22 -39 -27 -7 -2 18 -10 23 -43 25 -39 3 -42 1 -55 -33 -17 -43 -38
-45 -51 -5 -6 17 -15 30 -20 30 -5 0 -9 15 -9 34 0 18 -7 39 -15 46 -17 14
-20 40 -5 40 6 0 10 5 10 10 0 16 24 39 32 31 5 -4 9 -19 10 -34z m-228 -53
c19 -7 20 -13 1 -38 -11 -15 -16 -16 -28 -5 -8 7 -12 21 -9 31 5 19 11 21 36
12z m-239 -37 c-3 -7 -1 -19 5 -27 8 -13 11 -12 23 4 13 17 14 18 20 2 9 -23
0 -37 -18 -29 -10 3 -15 -1 -16 -13 -1 -17 -2 -17 -6 -1 -5 20 -29 23 -37 5
-3 -7 -3 5 0 27 3 22 8 43 11 48 7 11 23 -2 18 -16z m780 -67 c3 -5 -1 -10
-10 -10 -9 0 -13 5 -10 10 3 6 8 10 10 10 2 0 7 -4 10 -10z m-20 -39 c3 -6 -4
-15 -15 -21 -15 -8 -26 -7 -45 6 -14 9 -25 17 -25 18 0 7 80 4 85 -3z m212
-20 c8 -7 12 -20 8 -28 -4 -12 0 -14 16 -10 18 5 20 2 15 -16 -3 -12 -6 -32
-6 -44 0 -14 -6 -23 -16 -23 -8 0 -13 4 -10 9 4 5 -7 15 -24 23 -30 13 -40 28
-18 28 11 0 2 14 -10 16 -20 2 -42 18 -42 29 0 8 -4 16 -9 20 -15 8 -11 -78 4
-95 8 -9 10 -23 5 -35 -6 -17 -15 -20 -49 -17 -33 3 -41 8 -41 24 0 11 8 22
20 25 20 5 28 23 11 23 -5 0 -8 20 -7 46 l1 45 69 -3 c43 -1 74 -8 83 -17z
m-341 -38 c-10 -10 -19 5 -10 18 6 11 8 11 12 0 2 -7 1 -15 -2 -18z m169 17
c3 -5 2 -10 -4 -10 -6 0 -8 -6 -5 -14 3 -7 -2 -16 -10 -19 -10 -4 -16 -1 -16
8 0 8 -8 15 -17 15 -15 0 -14 2 3 15 22 17 40 19 49 5z m-198 -16 c-3 -3 -12
-4 -19 -1 -8 3 -5 6 6 6 11 1 17 -2 13 -5z m-142 -34 c3 -5 -1 -10 -9 -10 -9
0 -16 5 -16 10 0 6 4 10 9 10 6 0 13 -4 16 -10z m65 0 c0 -5 -5 -10 -11 -10
-5 0 -7 5 -4 10 3 6 8 10 11 10 2 0 4 -4 4 -10z m104 1 c10 -16 -21 -20 -41
-6 -17 13 -16 14 9 15 15 0 29 -4 32 -9z m122 -7 c-3 -9 -6 -33 -6 -55 0 -29
-4 -39 -16 -39 -12 0 -15 6 -10 25 5 20 3 25 -14 25 -11 0 -20 5 -20 11 0 6 9
8 20 4 23 -7 28 13 8 33 -9 9 -6 12 16 12 22 0 27 -4 22 -16z m-346 -24 c0 -5
-2 -10 -4 -10 -3 0 -8 5 -11 10 -3 6 -1 10 4 10 6 0 11 -4 11 -10z m540 -4 c0
-3 -4 -8 -10 -11 -5 -3 -10 -1 -10 4 0 6 5 11 10 11 6 0 10 -2 10 -4z m-320
-36 c0 -5 -4 -10 -10 -10 -5 0 -10 5 -10 10 0 6 5 10 10 10 6 0 10 -4 10 -10z
m297 -42 c-3 -8 -6 -5 -6 6 -1 11 2 17 5 13 3 -3 4 -12 1 -19z m243 -8 c0 -29
-2 -30 -46 -30 -37 0 -45 3 -40 15 3 8 0 15 -6 15 -7 0 -6 5 2 15 7 9 29 15
51 15 37 0 39 -2 39 -30z m-240 -77 c-1 -24 -2 -26 -11 -10 -5 9 -7 22 -4 27
10 17 15 11 15 -17z m880 -43 c0 -22 -4 -40 -10 -40 -5 0 -10 18 -10 40 0 22
5 40 10 40 6 0 10 -18 10 -40z m-430 0 c0 -11 -7 -20 -15 -20 -8 0 -15 9 -15
20 0 11 7 20 15 20 8 0 15 -9 15 -20z m360 -44 c0 -3 -4 -8 -10 -11 -5 -3 -10
-1 -10 4 0 6 5 11 10 11 6 0 10 -2 10 -4z m719 -143 c-1 -16 2 -36 6 -45 5
-13 3 -18 -9 -18 -17 0 -19 11 -10 59 8 38 15 40 13 4z m357 -32 c-10 -16 -23
-14 -30 5 -9 25 4 38 21 21 9 -8 12 -20 9 -26z m-526 -29 c0 -26 -2 -27 -42
-23 l-43 4 33 8 c39 8 53 19 26 20 -18 0 -18 1 1 9 11 5 21 9 23 9 1 1 2 -11
2 -27z m1053 -97 c4 -35 3 -43 -3 -27 -5 12 -16 22 -25 22 -8 0 -15 7 -15 15
0 8 7 15 15 15 8 0 15 8 15 17 0 31 7 8 13 -42z m-13817 25 c581 -21 1041 -64
1504 -140 96 -16 222 -36 280 -45 58 -9 150 -25 205 -35 300 -57 439 -84 515
-102 176 -40 258 -60 360 -84 103 -25 338 -92 475 -134 72 -22 122 -37 280
-85 102 -30 363 -111 505 -157 52 -16 154 -53 225 -80 72 -28 148 -56 170 -64
22 -7 76 -27 120 -44 44 -17 96 -36 115 -42 19 -5 40 -14 45 -18 6 -4 28 -13
50 -20 22 -7 54 -18 70 -25 17 -8 75 -31 130 -53 55 -22 136 -57 180 -77 44
-20 107 -49 140 -63 87 -39 515 -253 615 -308 47 -26 119 -65 160 -86 41 -22
118 -65 170 -96 52 -30 114 -65 136 -78 23 -12 147 -87 275 -166 250 -155 304
-187 331 -203 115 -65 507 -343 695 -493 39 -31 127 -100 195 -153 130 -103
382 -346 448 -433 22 -29 41 -63 42 -77 3 -21 0 -24 -25 -21 -26 3 -28 1 -22
-20 18 -57 88 -151 185 -248 58 -58 272 -270 475 -471 371 -366 484 -483 591
-614 31 -38 65 -79 75 -90 10 -11 48 -58 84 -105 35 -47 70 -91 77 -99 7 -8
52 -67 100 -130 129 -174 230 -291 250 -291 9 0 21 7 26 16 8 14 11 12 17 -12
5 -16 7 -33 6 -37 -1 -5 8 -20 19 -34 11 -14 20 -31 20 -38 0 -7 10 -24 23
-38 97 -110 309 -450 509 -817 135 -246 268 -525 268 -561 0 -25 -17 -24 -25
1 -3 11 -11 20 -16 20 -5 0 -9 7 -9 15 0 14 -46 95 -54 95 -2 0 -1 -11 2 -25
8 -43 -17 -28 -41 25 -12 27 -28 50 -34 50 -7 0 -13 5 -13 11 0 5 -4 7 -10 4
-5 -3 -10 -15 -10 -26 0 -18 -5 -20 -35 -16 -19 3 -35 1 -35 -3 0 -16 31 -32
50 -27 15 4 20 0 20 -14 0 -21 -8 -22 -65 -9 -44 10 -68 35 -59 62 7 22 -5 23
-32 4 -16 -12 -17 -16 -4 -20 18 -7 24 -64 9 -83 -8 -9 -8 -13 0 -13 16 0 13
-56 -4 -70 -13 -11 -15 -8 -15 14 0 14 -4 26 -9 26 -23 0 -41 -14 -41 -31 0
-10 -7 -19 -15 -19 -8 0 -15 -4 -15 -10 0 -5 -11 -10 -25 -10 -14 0 -25 -5
-25 -11 0 -6 -9 -8 -20 -4 -13 4 -22 1 -26 -9 -5 -12 -20 -16 -59 -16 l-53 0
6 -45 5 -45 -47 0 -46 0 -1 53 c0 52 0 52 -17 27 -23 -34 -50 -60 -62 -60 -5
0 -12 11 -16 25 -6 26 -30 34 -37 13 -2 -7 -2 -1 0 13 4 24 0 27 -31 31 -35 4
-36 3 -36 -28 0 -18 5 -36 10 -39 6 -3 10 -15 10 -26 0 -11 7 -22 16 -26 9 -3
13 -12 9 -21 -4 -10 3 -23 16 -33 19 -14 23 -27 24 -78 1 -34 -2 -61 -7 -61
-4 0 -8 4 -8 9 0 4 -11 20 -25 35 -14 15 -25 33 -25 40 0 7 -9 21 -20 31 -11
10 -17 21 -15 26 3 4 -4 10 -15 14 -11 3 -20 11 -20 16 0 6 -6 16 -12 24 -21
22 -120 155 -368 496 -124 170 -305 395 -421 524 -20 22 -58 66 -85 97 -27 32
-105 123 -174 203 -69 81 -143 168 -165 195 -22 26 -60 65 -85 86 -48 42 -75
73 -75 88 0 6 -25 29 -55 52 -30 24 -54 48 -52 54 1 7 -5 9 -16 6 -13 -4 -35
10 -78 51 -57 56 -149 132 -264 220 -30 23 -70 56 -88 73 -19 17 -66 52 -105
78 -40 26 -113 78 -163 114 -51 37 -107 75 -125 85 -19 10 -68 40 -109 67 -69
45 -105 65 -268 151 -32 17 -71 40 -87 51 -17 12 -43 27 -60 36 -16 8 -40 20
-52 26 -13 7 -33 17 -45 24 -137 72 -456 228 -465 228 -6 0 -18 7 -27 15 -8 9
-34 22 -58 31 -23 8 -45 18 -48 22 -3 4 -21 14 -40 24 -64 30 -149 68 -175 78
-14 5 -25 13 -25 18 0 5 -19 15 -42 22 -24 8 -47 17 -53 20 -5 4 -22 10 -37
14 -15 3 -40 11 -55 18 -15 6 -30 12 -33 13 -3 0 -14 5 -25 11 -11 6 -47 19
-80 29 -33 10 -64 21 -69 26 -6 5 -20 9 -33 9 -13 0 -26 6 -29 14 -3 8 -23 17
-45 21 -21 4 -42 12 -46 19 -5 7 -26 16 -47 19 -22 4 -43 12 -48 19 -4 7 -8 9
-8 5 0 -5 -24 5 -54 22 -29 17 -60 31 -68 31 -8 0 -23 9 -32 19 -10 11 -35 23
-57 26 -21 4 -39 11 -39 16 0 5 -9 9 -19 9 -11 0 -23 5 -26 10 -3 6 -14 10
-23 10 -9 0 -29 6 -44 14 -27 14 -136 41 -150 38 -5 -1 -8 3 -8 8 0 6 -11 10
-24 10 -14 0 -31 7 -40 15 -8 8 -25 15 -38 15 -25 0 -130 30 -223 65 -33 13
-98 33 -145 45 -47 12 -103 28 -125 35 -84 26 -112 33 -157 40 -27 3 -48 10
-48 15 0 4 -17 10 -37 13 -70 11 -194 37 -205 43 -11 7 -57 20 -123 34 -22 5
-71 16 -110 25 -38 9 -90 20 -115 24 -25 4 -67 14 -95 24 -68 22 -287 63 -501
92 -17 3 -71 11 -120 19 -49 8 -98 14 -109 14 -11 -1 -74 7 -140 17 -66 9
-151 18 -190 20 -81 4 -143 13 -158 22 -6 4 -45 8 -87 9 -41 2 -97 6 -125 8
-27 3 -117 9 -200 12 -82 3 -152 9 -155 13 -3 3 -41 6 -85 7 -44 0 -89 2 -100
3 -11 2 -37 -1 -59 -5 -28 -5 -40 -3 -47 7 -6 10 -9 10 -9 2 0 -8 -15 -13 -41
-13 -22 0 -38 4 -34 9 3 5 -3 12 -12 15 -24 7 -359 21 -450 19 -40 -1 -75 2
-78 7 -5 8 -208 15 -305 10 -19 -1 -150 -3 -290 -6 -140 -2 -273 -5 -295 -8
-22 -2 -85 -7 -140 -11 -55 -3 -161 -15 -235 -26 -74 -11 -172 -24 -217 -29
-46 -5 -88 -12 -93 -15 -6 -4 -25 -8 -43 -10 -127 -12 -217 -25 -397 -56 -36
-6 -92 -15 -125 -19 -85 -12 -158 -26 -250 -48 -44 -11 -107 -25 -140 -31 -68
-13 -108 -23 -215 -50 -41 -11 -122 -32 -180 -46 -141 -35 -266 -69 -450 -120
-52 -14 -99 -27 -105 -29 -99 -26 -442 -140 -560 -186 -44 -18 -93 -35 -110
-40 -16 -4 -43 -13 -60 -20 -48 -20 -63 -26 -190 -75 -111 -43 -228 -90 -380
-152 -225 -93 -586 -253 -678 -300 -40 -20 -83 -35 -104 -35 -25 0 -33 -4 -29
-13 3 -10 -12 -19 -49 -30 -30 -8 -57 -20 -60 -25 -3 -6 -31 -10 -61 -10 -53
0 -55 1 -52 27 2 21 -2 28 -22 34 l-25 7 28 1 c21 1 27 6 27 23 0 21 0 21 -21
2 -12 -10 -23 -14 -27 -9 -13 19 -32 15 -32 -7 0 -20 -1 -20 -18 -5 -11 10
-35 17 -59 17 -22 0 -46 6 -52 14 -8 9 -25 12 -56 9 -32 -4 -48 -1 -60 11 -12
12 -35 16 -89 16 -43 0 -89 6 -109 15 -20 8 -39 15 -42 15 -3 0 -5 -7 -5 -15
0 -8 -9 -15 -20 -15 -11 0 -20 7 -20 15 0 11 -11 15 -38 15 -21 0 -47 7 -58
15 -10 8 -35 15 -56 15 -20 0 -38 5 -40 11 -3 9 -10 9 -26 0 -35 -19 -76 -10
-80 17 -3 18 -10 22 -42 22 -21 0 -51 5 -67 12 -25 10 -119 19 -200 18 -27 0
-32 3 -35 26 -3 31 -7 32 -118 40 -77 6 -90 13 -90 50 0 26 -17 34 -70 34 -25
0 -40 5 -44 15 -3 9 -16 19 -28 24 -19 7 -22 14 -19 54 2 42 0 47 -18 47 -31
0 -31 74 0 91 16 8 20 17 16 37 -3 15 0 36 6 47 6 11 12 25 13 30 0 6 2 15 2
21 2 11 38 27 54 25 4 0 5 6 2 14 -4 8 -2 15 3 15 6 0 23 12 38 26 17 15 35
24 46 21 12 -3 19 0 19 8 0 7 13 16 29 20 16 3 32 13 35 22 4 8 12 13 20 10 8
-3 16 2 19 13 3 10 15 20 28 23 23 4 22 4 -3 6 -15 0 -33 -6 -42 -14 -16 -16
-46 -20 -46 -7 0 5 19 15 43 22 23 8 45 19 49 25 4 7 38 25 75 40 253 107 720
363 938 514 199 137 375 290 375 325 0 8 7 19 15 26 8 7 15 18 15 25 0 16 -63
38 -87 31 -38 -12 -172 14 -273 52 -8 3 -18 4 -22 4 -5 -1 -8 1 -8 6 0 4 26
19 58 34 57 27 57 27 22 27 -41 1 -92 -27 -116 -64 -9 -14 -23 -25 -30 -25
-20 0 -17 18 5 29 10 6 22 26 25 44 3 19 17 44 31 57 34 32 32 37 -12 36 -32
-1 -38 2 -36 19 1 12 -9 27 -25 38 -15 9 -47 33 -71 52 -24 20 -46 33 -49 30
-3 -2 19 -30 48 -61 l53 -56 -7 -60 c-3 -34 -6 -74 -6 -89 0 -39 -15 -36 -44
9 -40 64 -122 147 -214 216 -99 76 -112 78 -232 35 -56 -21 -79 -38 -166 -124
-107 -106 -134 -130 -202 -184 -26 -20 -41 -39 -38 -47 3 -9 -2 -14 -14 -14
-11 0 -20 -4 -20 -10 0 -5 -9 -10 -20 -10 -11 0 -20 -6 -20 -12 0 -15 -71 -58
-95 -58 -9 0 -14 -4 -11 -9 3 -5 -7 -14 -23 -21 -16 -6 -37 -20 -47 -31 -9
-10 -22 -19 -27 -19 -13 0 -160 -70 -167 -79 -3 -4 -39 -29 -80 -56 -40 -27
-100 -71 -131 -97 l-57 -47 28 78 c25 69 27 81 15 91 -12 10 -20 7 -43 -15
-15 -15 -43 -34 -62 -42 -55 -23 -116 -78 -138 -125 -11 -24 -40 -86 -65 -138
-25 -52 -55 -127 -67 -167 l-22 -72 24 -31 c31 -43 73 -67 149 -85 88 -20 159
-19 275 6 163 35 152 33 129 16 -11 -8 -36 -18 -55 -22 -19 -4 -61 -16 -94
-26 -68 -22 -211 -26 -284 -7 -58 14 -110 46 -147 89 -27 33 -28 35 -22 134 4
55 9 110 13 123 4 13 2 22 -5 22 -6 0 -11 -7 -11 -15 0 -9 -7 -18 -15 -21 -8
-4 -12 -10 -9 -15 3 -5 -3 -12 -13 -16 -10 -3 -26 -14 -36 -25 -12 -12 -33
-18 -65 -19 -28 0 -40 -3 -30 -7 15 -6 12 -10 -13 -21 -18 -8 -34 -22 -36 -32
-6 -23 -23 -25 -23 -4 0 8 -4 15 -10 15 -5 0 -10 -6 -10 -14 0 -9 -11 -13 -32
-12 -22 0 -32 -3 -30 -11 1 -7 -2 -13 -8 -13 -5 0 -10 5 -10 10 0 6 -12 10
-26 10 -14 0 -23 -3 -21 -7 3 -5 -26 -23 -64 -42 -40 -20 -65 -38 -58 -42 7
-4 -4 -12 -26 -19 -23 -8 -40 -9 -44 -3 -9 14 -81 3 -81 -12 0 -6 -9 -20 -20
-30 -15 -14 -20 -15 -20 -4 0 11 -2 11 -10 -1 -8 -12 -10 -12 -10 -1 0 11 -3
11 -17 0 -11 -10 -14 -10 -9 -1 4 7 2 12 -8 12 -8 0 -18 -4 -21 -10 -3 -5 -1
-10 4 -10 6 0 11 -7 11 -16 0 -9 -5 -13 -12 -10 -7 3 -21 9 -30 12 -10 4 -18
9 -18 13 0 4 -11 8 -25 9 -21 1 -25 -3 -25 -23 0 -24 -11 -30 -50 -27 -33 4
-63 -11 -98 -46 -26 -26 -46 -37 -67 -37 -19 0 -29 5 -27 13 3 15 -8 15 -30
-2 -23 -17 -23 -28 0 -24 21 4 24 -33 3 -40 -9 -3 -12 0 -8 10 10 26 -71 22
-100 -5 -12 -12 -23 -28 -23 -34 0 -7 -4 -13 -10 -13 -19 0 -25 -2 -52 -21
-14 -10 -31 -19 -38 -19 -6 0 -8 -5 -4 -11 5 -8 -1 -10 -18 -6 -20 5 -29 2
-42 -18 -9 -14 -21 -25 -27 -25 -6 0 -22 -14 -36 -31 -14 -16 -32 -28 -39 -25
-9 3 -11 0 -7 -11 4 -10 2 -14 -5 -9 -6 3 -14 1 -17 -5 -4 -5 -13 -8 -21 -5
-8 3 -14 -1 -14 -10 0 -8 -5 -12 -10 -9 -6 3 -10 -3 -10 -14 0 -14 -6 -21 -20
-21 -11 0 -23 -7 -26 -15 -4 -8 -17 -15 -31 -15 -16 0 -27 -7 -30 -20 -3 -11
-14 -20 -25 -20 -28 0 -58 -18 -58 -35 0 -18 -17 -20 -23 -2 -6 17 -18 4 -20
-22 l-1 -22 -17 22 -16 21 -13 -31 c-15 -38 -36 -54 -28 -23 4 12 2 25 -3 28
-10 6 -12 -6 -9 -48 2 -35 -18 -45 -26 -13 -9 35 -28 26 -32 -14 -3 -26 -7
-31 -22 -26 -22 7 -63 -12 -55 -24 3 -5 -2 -11 -10 -15 -9 -3 -12 -12 -8 -22
5 -12 3 -15 -6 -9 -16 9 -61 -14 -61 -32 0 -7 -11 -19 -25 -25 -14 -6 -25 -17
-25 -25 0 -7 -10 -13 -21 -13 -26 0 -60 -36 -53 -55 4 -10 -1 -12 -15 -8 -12
3 -21 1 -21 -5 0 -5 -10 -12 -22 -15 -13 -2 -32 -8 -43 -13 -19 -8 -20 -7 -2
16 9 14 20 32 24 40 9 19 116 160 202 265 229 280 774 822 1113 1108 578 486
1299 987 1741 1209 78 39 221 112 317 163 96 50 225 113 285 140 61 27 164 75
230 108 66 33 158 77 204 99 82 38 467 197 566 233 28 10 55 22 60 25 6 4 28
13 50 20 50 15 190 67 230 85 39 17 321 108 405 130 36 9 99 27 140 40 41 13
152 44 245 70 94 26 190 53 215 61 223 67 740 169 1380 273 582 95 1437 138
2196 111z m13627 -6 c9 -9 -4 -35 -14 -28 -5 3 -9 12 -9 20 0 14 12 19 23 8z
m-59 -19 c-6 -16 -24 -21 -24 -7 0 11 11 22 21 22 5 0 6 -7 3 -15z m96 -6 c0
-5 -4 -9 -10 -9 -5 0 -10 7 -10 16 0 8 5 12 10 9 6 -3 10 -10 10 -16z m271
-29 c4 0 11 5 14 10 11 18 23 11 18 -10 -7 -26 -18 -33 -43 -25 -15 5 -20 15
-19 38 0 30 1 31 11 10 6 -13 15 -23 19 -23z m349 25 c0 -8 -4 -15 -8 -15 -5
0 -9 7 -9 15 0 8 4 15 9 15 4 0 8 -7 8 -15z m45 -66 c15 -14 33 -10 38 9 3 12
5 10 6 -7 1 -22 -1 -23 -46 -16 -53 8 -63 12 -63 26 0 11 50 1 65 -12z m291 0
c3 -6 -1 -18 -10 -27 -15 -15 -16 -14 -16 11 0 27 13 36 26 16z m-408 -36 c2
-20 -1 -24 -9 -16 -7 7 -9 19 -6 27 9 23 12 20 15 -11z m82 -25 c-12 -11 -24
-17 -28 -13 -4 4 -1 10 6 12 6 3 12 11 12 19 0 8 6 11 16 7 13 -5 12 -8 -6
-25z m45 -57 c7 -12 -12 -24 -25 -16 -11 7 -4 25 10 25 5 0 11 -4 15 -9z m575
-66 c-7 -8 -16 -15 -21 -15 -14 0 -10 17 8 36 20 20 32 1 13 -21z m320 1 c0
-9 -30 -14 -35 -6 -4 6 3 10 14 10 12 0 21 -2 21 -4z m-640 -86 c0 -5 -2 -10
-4 -10 -3 0 -8 5 -11 10 -3 6 -1 10 4 10 6 0 11 -4 11 -10z m970 -12 c0 -12
-82 -6 -87 7 -2 6 15 9 42 7 25 -2 45 -8 45 -14z m447 16 c-3 -3 -12 -4 -19
-1 -8 3 -5 6 6 6 11 1 17 -2 13 -5z m-181 -52 c-9 -9 -37 8 -31 18 5 8 11 7
21 -1 8 -6 12 -14 10 -17z m134 14 c0 -8 -4 -18 -10 -21 -5 -3 -10 3 -10 14 0
12 5 21 10 21 6 0 10 -6 10 -14z m-280 -23 c0 -5 -4 -14 -9 -21 -7 -11 -9 -11
-14 1 -3 8 -3 18 0 21 9 8 23 7 23 -1z m721 -6 c-1 -4 -1 -14 -1 -22 0 -8 -4
-15 -10 -15 -5 0 -10 12 -10 26 0 14 5 24 11 22 6 -2 10 -7 10 -11z m-243 -19
c-2 -17 -11 -24 -32 -26 -20 -3 -27 0 -23 10 2 7 10 12 16 10 6 -1 14 5 17 13
9 23 26 18 22 -7z m-161 6 c-3 -3 -12 -4 -19 -1 -8 3 -5 6 6 6 11 1 17 -2 13
-5z m953 -14 c0 -6 -7 -13 -15 -16 -8 -4 -15 -17 -15 -30 0 -15 6 -24 15 -24
8 0 15 -7 15 -15 0 -21 -39 -19 -47 2 -11 29 -7 74 8 84 19 12 39 11 39 -1z
m-1710 -10 c0 -5 -9 -10 -20 -10 -11 0 -20 5 -20 10 0 6 9 10 20 10 11 0 20
-4 20 -10z m790 0 c0 -5 -5 -10 -11 -10 -5 0 -7 5 -4 10 3 6 8 10 11 10 2 0 4
-4 4 -10z m192 -12 c-11 -11 -32 -3 -32 12 0 4 9 6 21 3 13 -4 17 -9 11 -15z
m984 -27 c-3 -4 1 -17 9 -27 17 -23 19 -34 4 -34 -15 0 -40 66 -32 86 5 15 7
15 15 0 5 -9 7 -20 4 -25z m-770 -6 c-4 -14 -13 -25 -21 -25 -19 0 -19 5 1 36
20 29 29 25 20 -11z m181 13 c-3 -8 -6 -5 -6 6 -1 11 2 17 5 13 3 -3 4 -12 1
-19z m423 -19 c0 -34 -16 -47 -25 -20 -3 11 -12 22 -20 25 -25 9 -16 23 15 23
26 0 30 -4 30 -28z m1885 -86 c-4 -19 -12 -23 -45 -23 -32 0 -40 4 -40 18 0 9
-9 23 -20 30 -30 19 -24 32 15 32 24 0 35 5 35 15 0 8 -8 16 -17 17 -10 0 2 4
27 7 l45 6 3 -39 c2 -22 1 -50 -3 -63z m-2648 91 c-3 -3 -12 -4 -19 -1 -8 3
-5 6 6 6 11 1 17 -2 13 -5z m883 -25 c0 -11 -5 -17 -10 -14 -6 3 -13 -1 -16
-9 -7 -19 -24 -11 -24 10 0 11 22 27 48 33 1 1 2 -8 2 -20z m1219 -36 c1 -13
-3 -23 -9 -23 -5 0 -10 -12 -10 -27 l-1 -28 -15 28 c-18 33 -15 93 4 90 6 -2
12 3 13 10 1 19 18 -26 18 -50z m1101 36 c0 -5 -20 -9 -45 -9 -29 0 -45 4 -45
13 0 8 14 11 45 9 25 -2 45 -8 45 -13z m-2030 -19 c0 -15 -7 -20 -25 -20 -18
0 -25 5 -25 20 0 15 7 20 25 20 18 0 25 -5 25 -20z m705 -17 c14 -32 13 -32
-11 -21 -13 6 -24 15 -24 20 0 5 -41 8 -92 7 -55 -1 -93 2 -95 8 -3 7 31 11
89 12 51 1 94 4 97 7 10 10 23 -3 36 -33z m-2195 17 c0 -5 -4 -10 -10 -10 -5
0 -10 5 -10 10 0 6 5 10 10 10 6 0 10 -4 10 -10z m3287 -32 c-3 -8 -6 -5 -6 6
-1 11 2 17 5 13 3 -3 4 -12 1 -19z m-1893 -23 c-4 -8 -13 -15 -21 -15 -13 0
-13 3 -3 15 7 8 16 15 21 15 5 0 6 -7 3 -15z m1136 1 c0 -8 -4 -18 -10 -21 -5
-3 -10 3 -10 14 0 12 5 21 10 21 6 0 10 -6 10 -14z m80 -6 c0 -5 -4 -10 -10
-10 -5 0 -10 5 -10 10 0 6 5 10 10 10 6 0 10 -4 10 -10z m-305 -30 c-3 -5 -13
-10 -21 -10 -8 0 -12 5 -9 10 3 6 13 10 21 10 8 0 12 -4 9 -10z m-1360 -10
c-3 -5 -21 -9 -40 -7 -43 3 -34 17 11 17 21 0 33 -4 29 -10z m1235 -20 c0 -16
-4 -30 -10 -30 -5 0 -16 14 -25 30 -15 30 -15 30 10 30 21 0 25 -5 25 -30z
m60 -6 c0 -41 -16 -38 -22 6 -3 20 0 30 9 30 8 0 13 -13 13 -36z m-677 19 c-7
-2 -21 -2 -30 0 -10 3 -4 5 12 5 17 0 24 -2 18 -5z m117 -13 c0 -12 -7 -20
-17 -20 -15 0 -16 2 -3 10 11 7 5 10 -25 11 -39 1 -39 2 -10 9 48 12 55 11 55
-10z m267 4 c-3 -3 -12 -4 -19 -1 -8 3 -5 6 6 6 11 1 17 -2 13 -5z m-399 -32
c2 -7 -3 -12 -12 -12 -9 0 -16 7 -16 16 0 17 22 14 28 -4z m868 -19 c-10 -10
-19 5 -10 18 6 11 8 11 12 0 2 -7 1 -15 -2 -18z m-766 -40 c0 -5 -5 -15 -10
-23 -8 -12 -10 -11 -10 8 0 12 5 22 10 22 6 0 10 -3 10 -7z m303 -10 c-7 -2
-19 -2 -25 0 -7 3 -2 5 12 5 14 0 19 -2 13 -5z m7 -103 c0 -5 -4 -10 -10 -10
-5 0 -10 5 -10 10 0 6 5 10 10 10 6 0 10 -4 10 -10z m-23044 -1409 c0 -10 -14
-34 -31 -53 -30 -34 -40 -47 -73 -100 -9 -16 -23 -28 -31 -28 -8 0 -11 -3 -8
-6 10 -11 -11 -41 -33 -47 -30 -8 -25 2 30 62 28 29 50 59 50 67 0 14 40 82
68 116 17 21 30 16 28 -11z m-276 -30 c0 -22 -119 -107 -140 -99 -13 4 -2 18
50 59 56 44 90 60 90 40z m-1361 -697 c2 -2 -14 -4 -37 -4 -23 0 -42 5 -42 10
0 10 67 4 79 -6z m566 -24 c-3 -5 -14 -10 -23 -10 -15 0 -15 2 -2 10 20 13 33
13 25 0z m-362 -137 c-7 -2 -19 -2 -25 0 -7 3 -2 5 12 5 14 0 19 -2 13 -5z
m-1853 -243 c0 -11 -7 -20 -15 -20 -17 0 -18 2 -9 24 9 23 24 20 24 -4z
m12305 -111 c11 -11 -23 -12 -91 -2 -36 5 -43 8 -29 14 24 8 106 0 120 -12z
m70 -19 c8 -13 -5 -13 -25 0 -13 8 -13 10 2 10 9 0 20 -4 23 -10z m223 -25
c18 -3 30 -10 28 -14 -3 -5 -27 -5 -53 0 -27 4 -74 10 -105 14 -37 4 -58 11
-58 19 0 13 20 11 188 -19z m-10798 -5 c0 -5 -5 -10 -11 -10 -5 0 -7 5 -4 10
3 6 8 10 11 10 2 0 4 -4 4 -10z m10969 -35 c14 -15 -15 -15 -66 -1 l-58 16 59
-5 c33 -3 62 -8 65 -10z m-10882 -62 c-3 -10 -5 -4 -5 12 0 17 2 24 5 18 2 -7
2 -21 0 -30z m11106 10 c-7 -2 -19 -2 -25 0 -7 3 -2 5 12 5 14 0 19 -2 13 -5z
m202 -49 c22 -7 70 -19 108 -25 76 -14 94 -35 20 -24 -27 4 -56 11 -65 16 -9
5 -36 11 -59 14 -22 3 -49 10 -59 15 -9 5 -19 7 -22 5 -7 -7 -68 15 -68 24 0
9 91 -6 145 -25z m215 -64 c0 -5 -7 -7 -15 -4 -8 4 -15 8 -15 10 0 2 7 4 15 4
8 0 15 -4 15 -10z m115 -20 c155 -42 572 -184 617 -210 10 -6 23 -10 29 -10 6
0 43 -14 82 -31 40 -17 86 -37 102 -44 17 -7 37 -15 45 -17 7 -3 10 -7 4 -10
-5 -4 -25 1 -44 10 -19 8 -53 21 -75 27 -43 13 -93 31 -220 78 -44 16 -93 33
-110 37 -16 5 -102 34 -190 65 -88 31 -175 61 -194 67 -19 5 -44 16 -56 24
-12 8 -24 11 -28 8 -8 -8 -67 18 -67 30 0 4 6 6 13 3 7 -3 49 -15 92 -27z
m-11518 -6 c-3 -3 -12 -4 -19 -1 -8 3 -5 6 6 6 11 1 17 -2 13 -5z m3 -44 c0
-5 -7 -10 -16 -10 -8 0 -12 5 -9 10 3 6 10 10 16 10 5 0 9 -4 9 -10z m8430
-85 c47 -2 198 -9 335 -15 138 -6 315 -17 395 -26 80 -8 191 -19 247 -24 279
-27 673 -88 1078 -166 116 -22 171 -34 400 -89 160 -38 398 -99 465 -120 41
-13 125 -37 185 -55 156 -46 186 -56 575 -198 431 -157 717 -286 1000 -449 47
-27 92 -52 100 -56 71 -34 253 -193 228 -201 -65 -21 -173 8 -383 104 -11 5
-65 26 -120 45 -113 41 -290 109 -350 135 -22 10 -98 39 -170 65 -71 25 -170
62 -220 80 -213 81 -684 237 -887 295 -79 22 -165 47 -193 55 -158 45 -206 58
-365 95 -166 40 -270 62 -440 95 -41 8 -154 30 -250 50 -96 20 -249 47 -340
61 -91 13 -237 36 -325 49 -88 14 -191 30 -230 35 -38 5 -81 12 -95 15 -25 5
-168 21 -265 29 -27 2 -77 7 -110 11 -277 29 -351 37 -355 40 -3 2 -113 10
-245 19 -244 16 -470 33 -560 43 -27 2 -68 6 -90 8 -110 9 -149 15 -158 24
-12 12 -8 13 53 16 19 1 80 7 135 13 55 6 199 14 320 17 121 4 222 9 224 11 4
4 282 -3 411 -11z m-8012 -43 c2 -7 -6 -12 -17 -12 -21 0 -27 11 -14 24 9 9
26 2 31 -12z m929 -148 c-3 -3 -12 -4 -19 -1 -8 3 -5 6 6 6 11 1 17 -2 13 -5z
m14538 -304 c3 -6 3 -19 0 -31 -5 -16 -10 -18 -21 -8 -18 15 -18 49 0 49 8 0
18 -5 21 -10z m45 -60 c0 -5 -4 -10 -10 -10 -5 0 -10 5 -10 10 0 6 5 10 10 10
6 0 10 -4 10 -10z m25 -38 c-3 -3 -11 0 -18 7 -9 10 -8 11 6 5 10 -3 15 -9 12
-12z m81 -99 c-3 -8 -6 -17 -6 -19 0 -3 -4 -2 -10 1 -17 11 -12 45 6 38 8 -3
13 -12 10 -20z m262 -117 c40 -21 104 -92 153 -171 82 -130 126 -239 71 -173
-107 126 -136 160 -176 203 -65 70 -99 122 -92 140 7 19 10 19 44 1z m922
-2167 c0 -5 -9 -9 -20 -9 -19 0 -26 11 -14 23 8 8 34 -3 34 -14z m120 -16 c0
-5 -5 -15 -10 -23 -7 -11 -10 -11 -10 -2 0 7 -4 10 -10 7 -11 -7 -14 8 -3 18
9 9 33 9 33 0z m-8775 -51 c350 -60 604 -119 765 -179 52 -19 127 -46 165 -60
86 -32 414 -168 475 -197 54 -26 151 -80 202 -113 21 -12 40 -23 43 -23 17 0
337 -218 455 -309 217 -167 323 -262 518 -460 254 -258 387 -414 572 -671 221
-308 400 -608 575 -965 240 -492 316 -713 334 -981 4 -60 11 -116 16 -124 4
-7 9 -70 10 -140 1 -70 5 -132 9 -139 10 -16 -12 -166 -35 -234 -19 -58 -23
-66 -52 -125 -9 -19 -17 -44 -17 -56 0 -12 -7 -31 -15 -42 -8 -10 -15 -29 -15
-41 0 -13 -11 -30 -25 -39 -14 -9 -25 -25 -25 -35 0 -11 -4 -19 -10 -19 -5 0
-12 -11 -16 -25 -3 -13 -13 -30 -22 -37 -13 -11 -14 -11 -7 1 5 10 4 12 -4 7
-6 -4 -18 -20 -26 -37 -9 -16 -22 -29 -31 -29 -26 0 -74 -30 -74 -46 0 -8 -11
-19 -25 -24 -14 -5 -25 -13 -25 -17 0 -5 -33 -23 -72 -42 -40 -18 -81 -37 -90
-42 -10 -5 -25 -9 -33 -9 -8 0 -24 -9 -34 -19 -10 -10 -34 -22 -52 -26 -19 -4
-38 -11 -44 -15 -5 -4 -57 -10 -115 -13 -58 -3 -125 -12 -150 -21 -78 -26
-117 -30 -126 -13 -16 27 -60 31 -81 8 -13 -16 -29 -21 -66 -21 -26 0 -46 -4
-43 -8 3 -5 -21 -5 -52 -1 -57 8 -71 7 -149 -6 -35 -6 -44 -4 -49 9 -4 11 -10
13 -18 8 -6 -5 -43 -6 -85 -1 -47 5 -81 4 -93 -2 -11 -6 -38 -7 -66 -3 -26 5
-49 7 -52 7 -50 -11 -85 -11 -96 -2 -8 6 -20 9 -28 6 -7 -3 -23 1 -35 10 -15
10 -55 16 -124 20 -117 5 -150 10 -142 22 2 5 -2 11 -10 15 -8 3 -15 1 -15 -5
0 -15 -113 0 -123 17 -4 7 -22 16 -39 19 -18 4 -41 13 -50 19 -15 8 -21 8 -28
-4 -8 -12 -11 -12 -27 2 -16 14 -54 25 -108 31 -27 3 -65 37 -65 59 0 10 -5
18 -11 18 -5 0 -8 -4 -5 -9 3 -5 0 -14 -8 -20 -11 -9 -17 -8 -28 2 -7 8 -22
12 -33 10 -58 -11 -115 -14 -115 -5 0 6 -9 8 -20 5 -11 -3 -17 -10 -13 -16 4
-6 -3 -8 -18 -4 -14 4 -45 -1 -69 -10 -66 -24 -392 -25 -470 -1 -210 63 -350
139 -535 290 l-40 33 33 -44 c17 -25 32 -50 32 -57 0 -7 7 -20 16 -28 20 -20
2 -21 -36 -1 -25 13 -29 13 -35 -2 -5 -14 -8 -15 -14 -4 -7 10 -12 6 -23 -15
-12 -26 -17 -29 -58 -26 -25 2 -80 4 -122 5 -64 2 -80 5 -93 22 -15 20 -16 20
-31 -2 -21 -29 -69 -31 -77 -4 -4 16 -12 19 -48 16 -24 -1 -48 -4 -54 -5 -17
-4 -75 12 -75 21 0 5 -6 6 -14 3 -8 -3 -23 -1 -32 4 -13 7 -21 6 -29 -4 -11
-16 -49 -9 -39 7 8 14 -9 11 -32 -5 -12 -9 -26 -11 -34 -6 -7 4 -19 6 -26 3
-6 -2 -15 0 -19 6 -3 6 -17 11 -31 11 -13 0 -33 9 -44 20 -24 24 -30 25 -30 6
0 -7 -11 -16 -25 -18 -13 -3 -23 -2 -21 1 2 3 -1 15 -5 26 -9 19 -9 18 -5 -2
2 -12 -2 -27 -10 -34 -10 -8 -14 -8 -14 0 0 6 -10 11 -21 11 -16 0 -19 3 -11
13 9 12 18 47 28 117 4 26 0 42 -14 60 -20 24 -25 25 -164 29 -219 5 -264 8
-288 21 -22 12 -135 5 -160 -10 -9 -5 -11 -27 -8 -73 4 -66 -4 -79 -29 -47 -6
8 -15 12 -19 8 -4 -4 -13 -3 -21 3 -8 7 -13 8 -13 1 0 -5 -10 -10 -22 -11 -13
0 -49 -2 -82 -4 -51 -4 -59 -2 -63 14 -6 23 -33 26 -33 4 0 -20 -19 -19 -27 1
-5 12 -14 15 -44 10 -21 -3 -50 -1 -65 4 -14 6 -49 11 -76 12 -41 0 -51 5 -58
22 -7 17 -9 18 -9 4 -1 -12 -9 -18 -25 -18 -39 0 -55 10 -48 28 5 16 5 16 -11
0 -19 -18 -57 -13 -57 7 0 8 -9 17 -20 20 -11 3 -20 11 -20 17 0 5 -8 7 -17 4
-12 -5 -25 3 -44 26 -21 25 -30 30 -40 21 -8 -6 -34 -10 -57 -8 -39 2 -47 -1
-75 -34 -80 -91 -174 -172 -293 -253 -100 -68 -166 -100 -302 -145 -105 -34
-109 -35 -242 -30 -158 5 -229 24 -329 87 -75 48 -75 63 -1 25 105 -53 167
-68 305 -73 110 -3 143 0 215 18 99 25 274 107 378 177 91 62 243 208 294 283
10 14 31 43 47 65 74 99 186 352 240 540 86 302 86 663 1 913 -108 318 -379
522 -696 522 -276 0 -521 -105 -747 -320 -165 -157 -288 -323 -353 -476 -16
-37 -31 -61 -36 -56 -9 9 16 142 33 174 5 10 5 19 0 22 -5 3 -7 16 -3 28 3 14
2 19 -6 14 -7 -4 -12 -1 -12 8 0 9 -6 15 -12 13 -7 -1 -17 13 -22 31 -7 21
-16 32 -29 32 -10 0 -26 13 -35 30 -16 27 -51 46 -80 41 -6 -1 -28 10 -47 25
-24 18 -48 27 -77 28 -29 1 -42 5 -41 14 2 7 -9 13 -30 14 -17 1 -39 2 -47 4
-8 1 -21 2 -27 3 -7 1 -13 9 -13 18 0 9 -7 24 -16 34 -8 9 -16 30 -16 46 -1
39 22 133 38 158 8 11 14 26 14 35 0 8 11 27 24 41 17 18 21 30 15 42 -7 11
-4 17 8 21 10 3 19 17 19 31 1 14 10 38 20 53 10 15 27 45 38 67 11 22 28 46
38 53 10 7 18 17 18 22 0 13 63 114 77 123 7 4 13 14 13 22 0 8 9 19 21 25 15
9 19 18 15 34 -4 16 2 30 19 46 14 13 28 38 31 57 3 18 11 33 18 33 6 0 6 4
-3 9 -14 9 -7 51 10 51 16 0 10 38 -8 44 -14 6 -14 8 3 21 11 9 14 14 6 15
-10 0 -10 5 -2 20 9 16 8 22 -5 26 -18 7 -21 74 -3 92 7 7 9 12 4 12 -4 0 2
12 13 26 11 15 18 30 15 35 -8 14 -32 10 -42 -7 -10 -18 -78 -29 -87 -13 -5 7
-13 4 -26 -8 -35 -35 -48 -43 -69 -43 -13 0 -20 -7 -20 -20 0 -13 -7 -20 -19
-20 -11 0 -23 -9 -26 -20 -4 -11 -10 -18 -14 -15 -9 5 -57 -29 -114 -82 -105
-97 -191 -126 -115 -38 106 121 132 153 146 175 64 100 494 538 632 645 122
93 278 203 314 220 20 10 36 21 36 26 0 5 8 9 17 9 15 0 89 44 103 61 3 3 22
12 42 18 21 7 40 16 43 21 3 5 40 25 83 45 42 20 86 41 97 47 30 17 104 53
155 76 25 11 81 37 125 57 312 142 597 249 733 275 29 5 60 14 70 18 16 9 218
26 271 23 13 0 30 4 37 10 11 9 14 8 14 -5 0 -20 26 -21 34 -1 3 10 19 15 44
15 21 0 42 4 47 9 6 4 98 18 205 31 107 12 208 27 225 33 16 6 56 12 90 12 80
1 204 13 352 32 89 12 132 13 161 6 56 -14 136 0 179 33 19 14 37 23 40 20 3
-3 12 -1 18 4 7 5 42 12 79 14 37 2 70 7 74 11 9 9 84 2 227 -23z m8755 -1 c0
-6 -4 -13 -10 -16 -5 -3 -10 1 -10 9 0 9 5 16 10 16 6 0 10 -4 10 -9z m234
-73 c42 -92 42 -96 8 -64 -18 17 -32 39 -32 51 0 12 -7 30 -15 41 -14 19 -14
19 -15 -1 -1 -11 -4 -14 -7 -7 -5 12 13 42 26 42 3 0 19 -28 35 -62z m-434 37
c0 -8 -4 -15 -10 -15 -5 0 -10 7 -10 15 0 8 5 15 10 15 6 0 10 -7 10 -15z
m-178 -110 c0 -5 -5 -11 -11 -13 -6 -2 -11 4 -11 13 0 9 5 15 11 13 6 -2 11
-8 11 -13z m-308 -21 c7 -19 2 -18 -19 6 -16 17 -16 20 -3 15 9 -4 19 -13 22
-21z m240 -29 c-4 -8 -8 -15 -10 -15 -2 0 -4 7 -4 15 0 8 4 15 10 15 5 0 7 -7
4 -15z m-192 -159 c6 4 8 2 4 -4 -3 -6 -2 -13 4 -17 6 -4 8 -11 5 -16 -4 -5
-1 -9 4 -9 6 0 11 -7 11 -15 0 -8 7 -15 15 -15 9 0 15 -9 15 -25 0 -17 -4 -23
-15 -19 -8 4 -12 10 -9 15 3 5 0 9 -6 9 -6 0 -18 7 -26 15 -9 8 -12 15 -8 15
5 0 3 5 -4 12 -7 7 -12 26 -11 43 0 16 3 24 6 17 2 -6 10 -9 15 -6z m-21172
-916 c51 -38 103 -93 124 -129 18 -33 18 -33 -2 -22 -51 27 -90 -16 -280 -314
-36 -56 -81 -109 -87 -103 -7 7 40 130 83 219 23 47 64 111 92 144 64 76 84
118 70 145 -6 11 -14 20 -18 20 -16 0 -129 -119 -145 -152 -21 -44 -42 -64
-52 -48 -11 17 99 222 140 263 18 18 22 17 75 -23z m22632 -28 c23 -24 26 -38
33 -139 8 -129 7 -130 -70 -118 -41 6 -47 10 -69 53 -28 56 -56 146 -56 181 0
37 13 52 51 60 43 9 79 -3 111 -37z m-22912 18 c0 -5 -5 -10 -11 -10 -5 0 -7
5 -4 10 3 6 8 10 11 10 2 0 4 -4 4 -10z m23095 -162 c87 -87 195 -249 245
-367 47 -108 120 -427 120 -520 0 -92 -68 34 -110 204 -27 111 -47 170 -127
390 -52 141 -113 246 -185 319 -41 42 -44 46 -27 46 7 0 44 -33 84 -72z m-100
-218 c3 -11 11 -20 16 -20 17 0 50 -41 69 -84 10 -24 25 -90 34 -147 10 -57
21 -126 27 -152 18 -92 7 -157 -26 -157 -18 0 -65 47 -65 65 0 8 -9 15 -20 15
-13 0 -22 9 -26 28 -3 15 -10 41 -14 57 -5 17 -14 62 -19 100 -13 88 -19 118
-31 150 -16 41 -13 78 5 71 9 -3 18 1 21 9 4 8 12 15 19 15 8 0 11 8 8 20 -4
15 -11 18 -29 14 -28 -7 -32 10 -6 25 25 15 30 13 37 -9z m-12425 -1090 c115
-38 203 -90 272 -161 57 -59 122 -176 116 -208 -4 -20 -38 -27 -49 -9 -6 10
-9 10 -9 1 0 -28 -19 -11 -26 22 -3 19 -12 35 -18 35 -6 0 -20 14 -29 30 -18
29 -37 40 -37 20 0 -5 -4 -10 -10 -10 -5 0 -10 9 -10 20 0 10 -9 24 -21 30
-11 7 -18 17 -16 24 4 9 -3 12 -19 10 -14 -1 -28 4 -33 13 -6 12 -17 14 -38
10 -25 -5 -32 -2 -43 19 -16 30 -34 32 -25 3 l7 -22 -21 20 c-13 12 -19 26
-15 36 4 13 1 17 -14 17 -12 0 -23 -4 -27 -10 -3 -5 -12 -7 -19 -4 -7 3 -16
-2 -19 -10 -9 -24 -40 -21 -32 3 4 13 0 20 -15 24 -11 3 -20 1 -20 -4 0 -5
-11 -9 -25 -9 -15 0 -25 6 -25 14 0 8 -12 18 -28 24 -36 12 -95 4 -88 -13 7
-18 -47 -24 -95 -11 -32 8 -42 8 -49 -3 -4 -8 -15 -11 -25 -7 -9 3 -26 0 -38
-6 -12 -7 -42 -13 -67 -14 -57 -3 -75 -7 -91 -21 -8 -6 -31 -14 -51 -18 -21
-4 -42 -13 -49 -21 -6 -8 -19 -14 -28 -14 -9 0 -22 -5 -29 -12 -9 -9 -12 -9
-12 2 0 24 11 33 95 86 243 153 542 201 775 124z m-273 -96 c-3 -3 -12 -4 -19
-1 -8 3 -5 6 6 6 11 1 17 -2 13 -5z m1410 -2076 c-3 -7 -5 -2 -5 12 0 14 2 19
5 13 2 -7 2 -19 0 -25z m533 -78 c0 -5 -5 -10 -11 -10 -5 0 -7 5 -4 10 3 6 8
10 11 10 2 0 4 -4 4 -10z m-25 -30 c3 -5 -1 -10 -10 -10 -9 0 -13 5 -10 10 3
6 8 10 10 10 2 0 7 -4 10 -10z m8414 -1232 c-24 -35 -104 -124 -178 -199 -191
-190 -392 -333 -676 -477 -531 -271 -956 -423 -1482 -532 -130 -27 -532 -86
-708 -104 -254 -26 -546 -55 -630 -61 -44 -3 -123 -10 -175 -15 -52 -5 -176
-14 -275 -20 -99 -6 -229 -15 -289 -21 -71 -7 -112 -7 -118 -1 -16 16 85 33
682 117 140 20 356 51 480 70 124 19 338 50 475 70 417 60 642 105 896 180
190 56 500 154 554 174 28 11 113 43 190 72 217 81 357 143 515 230 322 176
469 282 664 478 61 61 112 109 114 106 2 -2 -15 -32 -39 -67z m-585 -110 c-16
-18 -30 -35 -31 -37 -2 -2 -6 -2 -9 2 -5 5 54 66 65 67 3 0 -8 -15 -25 -32z
m-59 -58 c-11 -18 -110 -109 -161 -147 -27 -20 -51 -39 -54 -42 -24 -27 -310
-225 -310 -214 1 4 24 24 52 43 27 19 85 61 127 93 42 32 92 69 112 82 20 13
63 48 95 77 114 104 157 137 139 108z m2757 -183 c26 -41 118 -133 253 -252
37 -33 75 -67 84 -76 9 -9 34 -28 56 -41 22 -14 58 -43 80 -63 22 -21 81 -68
130 -105 50 -37 115 -90 145 -118 30 -29 58 -52 62 -52 4 0 12 -9 18 -20 6
-11 16 -20 22 -20 6 0 21 -10 33 -22 12 -13 53 -50 91 -83 38 -33 100 -90 137
-127 38 -38 73 -68 77 -68 4 0 12 -11 18 -25 6 -14 15 -25 20 -25 5 0 63 -55
129 -122 189 -194 214 -220 208 -226 -3 -3 4 -11 15 -19 11 -8 27 -29 36 -48
9 -19 23 -35 30 -35 8 0 14 -7 14 -15 0 -8 5 -15 11 -15 5 0 7 -4 4 -10 -3 -6
1 -7 9 -4 9 3 16 2 16 -4 0 -5 11 -20 25 -33 13 -13 25 -29 25 -36 0 -6 9 -14
19 -18 10 -3 24 -19 31 -35 7 -17 17 -30 22 -30 5 0 16 -16 24 -35 8 -19 18
-35 23 -35 5 0 24 -21 42 -46 19 -25 42 -53 52 -62 9 -9 17 -24 17 -34 0 -10
4 -18 10 -18 5 0 7 -6 4 -14 -3 -8 4 -16 17 -19 16 -4 20 -11 16 -27 -3 -12
-3 -19 0 -16 9 8 43 -13 43 -28 0 -7 11 -22 25 -34 14 -13 25 -33 25 -47 0
-15 6 -25 14 -25 17 0 49 -47 41 -60 -3 -5 0 -7 8 -4 10 3 17 -4 21 -23 4 -15
19 -40 34 -55 20 -22 22 -28 9 -28 -8 0 -19 -5 -23 -12 -5 -8 -2 -9 9 -5 12 4
17 1 17 -11 0 -9 7 -26 15 -36 8 -11 15 -28 15 -37 0 -10 12 -31 26 -48 14
-17 21 -31 15 -31 -6 0 -11 -5 -11 -11 0 -5 5 -7 10 -4 6 3 11 -4 11 -17 1
-17 3 -18 6 -5 2 9 9 17 14 17 5 0 9 -8 10 -17 2 -48 7 -67 21 -77 10 -8 12
-19 7 -38 -4 -17 -3 -28 2 -28 6 0 7 -5 3 -11 -4 -7 -7 -25 -6 -40 0 -16 -4
-31 -9 -34 -13 -9 -11 -87 4 -106 7 -9 19 -14 27 -11 11 4 10 1 -3 -12 -9 -10
-17 -33 -17 -52 0 -23 -5 -34 -14 -34 -9 0 -12 7 -9 20 7 26 -13 26 -27 -1 -7
-11 -20 -29 -31 -40 -10 -10 -19 -30 -19 -43 0 -28 -21 -48 -46 -44 -19 3 -29
-18 -39 -84 -5 -32 -10 -38 -30 -38 -14 0 -25 -6 -25 -13 0 -14 -52 -57 -70
-57 -15 0 -12 -50 3 -51 10 0 10 -2 0 -6 -7 -2 -13 -11 -13 -19 0 -8 -4 -14
-10 -14 -5 0 -10 9 -10 20 0 22 -1 23 -24 14 -9 -3 -16 -12 -16 -20 0 -8 -4
-14 -10 -14 -5 0 -10 -7 -10 -15 0 -28 -22 -63 -37 -58 -7 3 -13 2 -12 -3 5
-31 -2 -46 -21 -41 -11 3 -18 1 -14 -4 3 -5 0 -9 -6 -9 -6 0 -13 7 -16 15 -8
19 -21 19 -39 1 -12 -12 -12 -15 2 -20 26 -10 -13 -46 -50 -46 -17 0 -51 -10
-76 -22 -58 -27 -58 -27 -41 -39 12 -8 10 -9 -7 -4 -12 3 -24 1 -28 -5 -3 -5
-19 -10 -35 -10 -16 0 -32 -5 -35 -11 -4 -6 -22 -8 -45 -4 -23 4 -41 2 -45 -4
-3 -6 -15 -11 -26 -11 -10 0 -19 -6 -19 -12 0 -7 -15 -14 -33 -15 -53 -4 -68
-9 -77 -23 -7 -11 -11 -11 -23 -1 -10 8 -17 9 -22 1 -3 -5 -26 -10 -51 -10
-25 0 -43 -4 -40 -9 12 -19 -38 -19 -65 -1 -21 16 -28 17 -32 6 -4 -10 -20
-13 -60 -9 -31 2 -58 0 -61 -6 -4 -6 -27 -8 -55 -4 -59 7 -113 -3 -90 -18 10
-6 7 -9 -13 -9 -14 0 -28 5 -30 11 -5 15 -108 33 -120 21 -5 -5 -1 -8 9 -8 10
1 19 -3 20 -9 2 -5 -10 -10 -25 -10 -31 0 -42 11 -42 43 0 13 -4 20 -10 17 -6
-4 -8 -11 -5 -16 4 -5 2 -9 -4 -9 -5 0 -11 5 -13 12 -3 8 -27 6 -89 -7 -165
-35 -553 -63 -621 -44 -22 6 -53 11 -69 11 -16 1 -29 5 -29 10 0 4 -7 8 -15 8
-8 0 -16 8 -16 18 -1 16 -2 16 -6 0 -6 -25 -23 -22 -58 10 -17 16 -36 27 -44
24 -9 -3 -11 0 -7 7 4 7 5 19 2 28 -5 12 -9 13 -20 4 -11 -9 -20 -5 -41 21
-29 34 -72 61 -77 49 -2 -4 -19 -10 -40 -14 -34 -5 -36 -4 -42 27 -4 18 -16
42 -27 52 -20 18 -21 18 -35 -1 -8 -10 -14 -22 -14 -26 0 -4 -15 -5 -32 -4
-49 4 -50 4 -43 15 3 6 -1 13 -10 16 -9 4 -13 13 -10 24 7 22 -40 37 -61 19
-11 -9 -21 -5 -45 16 -22 18 -34 23 -39 15 -6 -9 -9 -9 -15 -1 -4 7 -1 18 5
26 10 12 9 16 -5 21 -10 4 -21 1 -25 -6 -11 -18 -51 -20 -57 -3 -6 16 -39 17
-48 2 -5 -7 -13 -5 -25 6 -9 8 -24 13 -34 9 -19 -7 -22 11 -3 20 6 3 3 4 -9 1
-14 -4 -27 4 -42 25 -13 16 -31 30 -42 30 -11 0 -20 5 -20 10 0 6 -5 10 -12
10 -9 0 -9 -3 0 -12 7 -7 12 -21 12 -32 0 -18 -1 -18 -20 -1 -11 10 -26 15
-35 11 -9 -3 -26 -1 -38 6 -12 6 -42 12 -67 12 -33 1 -44 5 -42 15 3 14 -25
51 -40 51 -4 0 -8 -7 -8 -15 0 -21 -21 -19 -27 4 -4 15 -15 19 -64 20 -60 1
-74 -10 -47 -37 7 -7 8 -12 2 -12 -6 0 -18 16 -27 35 -17 35 -31 43 -42 25
-16 -25 -108 3 -100 30 4 12 -6 15 -57 14 -50 -1 -64 -5 -79 -22 -22 -28 -29
-28 -29 3 0 21 -5 25 -32 27 -18 0 -44 0 -56 -1 -13 -1 -30 3 -38 9 -8 7 -52
12 -111 12 -116 0 -129 3 -136 27 -3 14 -17 20 -51 25 -25 3 -66 9 -91 12 -36
5 -45 10 -45 26 0 19 -6 20 -90 16 -64 -2 -91 0 -94 9 -3 7 -21 12 -41 11 -28
-1 -39 -7 -45 -24 -7 -17 -17 -22 -44 -22 -20 0 -36 4 -36 9 0 5 -29 9 -65 9
-47 0 -65 4 -65 13 0 18 -58 37 -113 37 -26 0 -47 4 -47 10 0 5 -55 11 -132
12 -83 2 -132 7 -130 13 1 6 -24 13 -55 16 -32 4 -75 10 -95 13 -21 3 -39 2
-43 -4 -10 -16 -75 -12 -81 5 -8 21 -92 21 -100 0 -4 -8 -10 -12 -15 -9 -5 3
-7 9 -4 14 8 13 -54 30 -111 30 -36 0 -53 4 -51 12 1 6 -10 18 -25 27 -22 12
-36 13 -78 5 -28 -6 -53 -7 -55 -3 -3 4 -49 8 -102 8 -69 1 -99 5 -105 14 -5
10 -33 13 -95 13 -48 0 -70 -2 -49 -4 33 -3 82 -30 59 -33 -28 -3 -89 4 -94
12 -9 16 -298 27 -321 12 -7 -4 -65 -7 -128 -7 -115 -1 -117 -1 -114 22 2 19
-2 22 -37 22 -21 0 -39 -4 -39 -10 0 -5 -14 -10 -31 -10 -17 0 -28 4 -24 10 4
6 -25 9 -79 8 -47 -1 -86 -6 -86 -11 0 -5 -7 -4 -15 3 -11 9 -22 9 -47 1 -30
-10 -89 -13 -215 -11 -24 0 -179 -8 -345 -19 -719 -49 -988 -65 -1398 -86
-162 -8 -322 -17 -355 -20 -33 -2 -123 -7 -200 -10 -77 -3 -241 -9 -365 -14
-409 -18 -883 -18 -830 -1 17 5 19 8 8 9 -21 1 -24 17 -5 24 7 3 55 10 107 17
52 6 103 16 113 22 13 6 23 5 32 -2 10 -8 35 -9 82 -4 l68 8 -78 7 c-43 4 -84
12 -90 18 -8 8 -6 11 7 11 9 0 14 4 11 10 -3 6 -30 10 -58 10 -29 0 -70 7 -92
14 l-40 14 40 4 c22 3 0 5 -48 6 -56 1 -86 6 -82 12 4 6 -8 10 -29 10 -20 0
-36 5 -36 10 0 13 46 13 69 0 11 -5 30 -6 47 0 16 4 22 9 14 10 -42 4 43 20
138 26 72 5 120 13 147 25 24 12 58 19 89 17 31 -1 51 3 54 10 2 7 17 12 33
12 16 0 29 4 29 10 0 5 13 7 29 4 16 -3 32 -1 35 5 4 5 13 8 20 5 8 -3 31 -1
52 5 22 6 132 15 245 21 246 12 679 33 732 34 20 1 37 3 37 6 0 3 8 6 18 7 9
1 49 4 87 8 39 3 100 8 138 11 37 3 67 10 67 15 0 5 26 9 59 9 39 0 63 5 71
15 9 11 25 13 69 8 38 -3 66 -1 81 7 13 7 46 14 74 16 28 2 116 12 196 23 80
11 165 23 190 26 25 4 56 9 70 12 l25 5 -22 9 c-13 4 -64 9 -115 10 -87 1
-118 9 -118 30 0 5 14 9 32 9 17 0 28 3 25 7 -4 3 -359 7 -789 8 -637 2 -792
5 -832 17 -57 16 -71 44 -28 54 15 4 36 12 47 18 41 22 91 35 110 30 14 -4 16
-3 7 4 -9 6 20 10 80 11 97 3 110 4 168 14 33 7 65 9 330 22 180 10 548 33
865 55 160 11 403 27 540 35 442 27 1302 113 1655 166 516 77 1402 272 1755
387 377 123 572 200 810 322 193 98 276 149 390 241 130 104 185 141 185 124
0 -8 -4 -15 -10 -15 -5 0 -17 -16 -26 -35 -9 -19 -22 -35 -29 -35 -7 0 -15 -7
-19 -15 -3 -8 -12 -12 -21 -9 -22 9 -18 -5 7 -26 21 -16 24 -16 55 -1 18 9 33
21 33 27 0 6 13 17 29 24 17 6 32 17 34 23 2 7 2 1 0 -13 -5 -29 -6 -31 -27
-34 -15 -2 -86 -77 -86 -90 0 -3 5 -6 11 -6 6 0 17 -7 25 -15 14 -13 14 -15 0
-15 -9 0 -16 -4 -16 -10 0 -12 27 -2 65 24 16 11 63 38 104 59 63 32 232 143
301 197 11 8 36 26 56 40 84 59 232 183 274 231 107 123 305 417 373 555 17
35 34 64 37 64 3 0 17 -19 32 -43z m-3312 -243 c-8 -8 -23 -20 -34 -25 -15 -7
-13 -3 7 15 31 29 47 35 27 10z m-19229 -324 c66 -223 114 -319 203 -413 33
-34 45 -57 29 -57 -24 0 -139 80 -193 134 -35 36 -73 66 -83 66 -11 0 -34 -12
-52 -27 -60 -52 -240 -180 -340 -243 -205 -129 -342 -226 -503 -357 -80 -65
-92 -59 -36 19 19 28 46 82 59 122 34 102 60 157 108 227 23 34 53 78 66 98
70 104 366 365 573 504 31 21 64 50 73 63 32 49 47 28 96 -136z m21429 -360
c0 -5 -2 -10 -4 -10 -3 0 -8 5 -11 10 -3 6 -1 10 4 10 6 0 11 -4 11 -10z
m-7097 -1417 c-7 -2 -19 -2 -25 0 -7 3 -2 5 12 5 14 0 19 -2 13 -5z m10508
-75 c10 -24 26 -52 34 -62 8 -11 15 -27 14 -35 0 -11 -2 -12 -6 -3 -2 6 -8 10
-13 7 -4 -3 -13 10 -19 28 -7 17 -20 49 -31 70 -10 20 -14 37 -9 37 6 0 19
-19 30 -42z m-7431 -468 c0 -4 -20 -7 -44 -6 -25 0 -42 5 -39 11 4 12 83 7 83
-5z m-203 4 c-3 -3 -12 -4 -19 -1 -8 3 -5 6 6 6 11 1 17 -2 13 -5z m1233 -34
c0 -5 -9 -10 -20 -10 -11 0 -20 5 -20 10 0 6 9 10 20 10 11 0 20 -4 20 -10z
m50 0 c0 -5 -10 -10 -22 -10 -19 0 -20 2 -8 10 19 13 30 13 30 0z m-5090 -64
c0 -3 -4 -8 -10 -11 -5 -3 -10 -1 -10 4 0 6 5 11 10 11 6 0 10 -2 10 -4z
m7151 -275 c-12 -8 -51 -4 -51 5 0 2 15 4 33 4 22 0 28 -3 18 -9z m646 -177
c-3 -3 -12 -4 -19 -1 -8 3 -5 6 6 6 11 1 17 -2 13 -5z m1963 -359 c9 -10 4
-13 -23 -12 -27 1 -33 4 -30 18 5 19 35 15 53 -6z m663 18 c-7 -2 -19 -2 -25
0 -7 3 -2 5 12 5 14 0 19 -2 13 -5z m44 1 c-3 -3 -12 -4 -19 -1 -8 3 -5 6 6 6
11 1 17 -2 13 -5z m677 -319 c3 -8 1 -15 -4 -15 -6 0 -10 6 -10 13 0 8 -4 7
-10 -3 -5 -8 -10 -10 -10 -4 0 25 25 32 34 9z m1296 -170 c0 -8 -7 -15 -15
-15 -16 0 -20 12 -8 23 11 12 23 8 23 -8z m-1243 -42 c4 -11 -26 -27 -35 -19
-2 3 -2 12 2 21 6 18 27 16 33 -2z m690 -9 c-3 -3 -12 -4 -19 -1 -8 3 -5 6 6
6 11 1 17 -2 13 -5z m5418 -4 c3 -5 -1 -10 -9 -10 -9 0 -16 5 -16 10 0 6 4 10
9 10 6 0 13 -4 16 -10z m-5948 -16 c2 -7 -6 -10 -21 -7 -14 3 -23 10 -20 15 8
12 36 6 41 -8z m5803 6 c0 -5 -9 -10 -20 -10 -11 0 -20 5 -20 10 0 6 9 10 20
10 11 0 20 -4 20 -10z m-2540 -30 c0 -5 -4 -10 -9 -10 -6 0 -13 5 -16 10 -3 6
1 10 9 10 9 0 16 -4 16 -10z m-3640 -24 c0 -3 -4 -8 -10 -11 -5 -3 -10 -1 -10
4 0 6 5 11 10 11 6 0 10 -2 10 -4z m3270 -46 c8 -5 11 -12 8 -16 -10 -9 -38 3
-38 16 0 12 10 13 30 0z m2521 -10 c5 0 9 -5 9 -11 0 -15 -43 -7 -48 10 -3 10
0 12 12 8 10 -4 22 -7 27 -7z m169 -5 c43 -22 37 -34 -12 -28 -51 7 -52 8 -45
28 8 19 20 19 57 0z m-685 -45 c22 -24 8 -27 -46 -9 -53 18 -58 29 -13 29 28
0 47 -6 59 -20z m-400 -11 c11 -17 0 -20 -21 -4 -17 13 -17 14 -2 15 9 0 20
-5 23 -11z m-5245 -14 c0 -17 -2 -18 -24 -9 -23 9 -20 24 4 24 11 0 20 -7 20
-15z m4400 -91 c0 -8 -4 -12 -10 -9 -5 3 -10 10 -10 16 0 5 5 9 10 9 6 0 10
-7 10 -16z m990 -104 c0 -5 -9 -10 -21 -10 -11 0 -17 5 -14 10 3 6 13 10 21
10 8 0 14 -4 14 -10z m-7695 -49 c8 -14 -10 -22 -30 -15 -13 5 -14 8 -3 15 17
11 26 11 33 0z m977 -23 c-6 -6 -15 -8 -19 -4 -4 4 -1 11 7 16 19 12 27 3 12
-12z"/>
<path d="M9653 19223 c9 -2 23 -2 30 0 6 3 -1 5 -18 5 -16 0 -22 -2 -12 -5z"/>
<path d="M9728 19203 c7 -3 16 -2 19 1 4 3 -2 6 -13 5 -11 0 -14 -3 -6 -6z"/>
<path d="M9065 19109 c-114 -47 -266 -125 -360 -187 -118 -77 -139 -95 -266
-217 -52 -51 -113 -104 -135 -118 -51 -32 -264 -239 -264 -257 0 -13 12 -5 90
66 19 18 56 43 81 56 91 46 157 97 185 144 91 147 311 315 620 473 121 61 140
77 49 40z"/>
<path d="M19122 19093 c-6 -2 -10 -8 -7 -13 3 -5 -4 -11 -15 -15 -34 -11 -23
-41 33 -89 101 -89 250 -150 432 -177 75 -11 83 -10 127 11 45 21 55 40 23 40
-8 0 -37 14 -65 30 -28 17 -54 30 -58 30 -4 0 -27 14 -52 30 -75 51 -243 128
-314 144 -70 17 -83 18 -104 9z"/>
<path d="M19855 18800 c3 -5 8 -10 11 -10 2 0 4 5 4 10 0 6 -5 10 -11 10 -5 0
-7 -4 -4 -10z"/>
<path d="M13515 18770 c-125 -9 -245 -29 -265 -44 -8 -7 -28 -18 -44 -26 -43
-22 -106 -98 -106 -129 0 -38 123 -154 203 -191 115 -54 216 -60 392 -22 65
14 207 90 258 138 57 54 107 121 107 144 0 27 -50 71 -116 101 -55 25 -75 28
-195 32 -74 2 -179 1 -234 -3z"/>
<path d="M8000 18280 c-20 -20 -28 -56 -10 -45 6 3 10 11 10 17 0 6 7 20 17
30 22 24 8 23 -17 -2z"/>
<path d="M7950 18201 c0 -6 5 -13 10 -16 6 -3 10 1 10 9 0 9 -4 16 -10 16 -5
0 -10 -4 -10 -9z"/>
<path d="M7340 17900 c0 -5 6 -10 14 -10 8 0 18 5 21 10 3 6 -3 10 -14 10 -12
0 -21 -4 -21 -10z"/>
<path d="M7000 17794 c0 -8 5 -12 10 -9 6 3 10 10 10 16 0 5 -4 9 -10 9 -5 0
-10 -7 -10 -16z"/>
<path d="M22152 17701 c-22 -14 8 -61 94 -146 120 -120 212 -174 295 -175 65
0 96 26 97 80 1 37 -3 44 -46 75 -55 40 -102 64 -192 98 -113 42 -134 49 -163
53 -15 2 -36 8 -47 14 -22 12 -21 12 -38 1z"/>
<path d="M8760 17430 c0 -11 4 -20 9 -20 5 0 7 9 4 20 -3 11 -7 20 -9 20 -2 0
-4 -9 -4 -20z"/>
<path d="M8907 17244 c-13 -13 -7 -24 14 -24 11 0 19 5 17 12 -5 14 -22 21
-31 12z"/>
<path d="M8988 17203 c7 -3 16 -2 19 1 4 3 -2 6 -13 5 -11 0 -14 -3 -6 -6z"/>
<path d="M10345 16920 c4 -6 11 -8 16 -5 14 9 11 15 -7 15 -8 0 -12 -5 -9 -10z"/>
<path d="M10320 16900 c0 -5 5 -10 10 -10 6 0 10 5 10 10 0 6 -4 10 -10 10 -5
0 -10 -4 -10 -10z"/>
<path d="M23750 15710 c0 -5 5 -10 11 -10 5 0 7 5 4 10 -3 6 -8 10 -11 10 -2
0 -4 -4 -4 -10z"/>
<path d="M26051 14308 c0 -10 -7 -18 -13 -19 -7 -1 -22 -2 -32 -3 -29 -2 -31
-23 -3 -28 33 -6 60 15 54 44 -3 14 -5 16 -6 6z"/>
<path d="M25390 14020 c0 -5 11 -10 25 -10 14 0 25 5 25 10 0 6 -11 10 -25 10
-14 0 -25 -4 -25 -10z"/>
<path d="M13145 12299 c-4 -6 -5 -12 -2 -15 7 -7 37 7 37 17 0 13 -27 11 -35
-2z"/>
<path d="M17718 11410 c-128 -23 -262 -78 -369 -151 -213 -144 -334 -345 -401
-668 -19 -87 -22 -136 -22 -276 3 -376 79 -607 300 -911 188 -259 381 -395
659 -464 105 -27 283 -31 405 -10 283 48 546 250 683 525 109 221 147 547 92
800 -63 293 -99 397 -180 521 -216 332 -456 518 -785 611 -94 26 -297 39 -382
23z m442 -124 c211 -61 340 -134 489 -279 138 -135 273 -345 250 -388 -15 -29
-10 -51 17 -80 32 -33 41 -91 18 -114 -18 -17 -34 -20 -34 -5 0 6 5 10 10 10
13 0 13 25 0 48 -28 51 -47 103 -39 108 15 9 10 21 -11 27 -12 3 -20 14 -20
25 0 12 -9 23 -20 27 -11 3 -25 15 -30 26 -6 10 -20 19 -31 19 -11 0 -18 4
-15 9 3 5 -11 19 -32 31 -20 12 -41 29 -46 37 -7 13 -10 13 -17 2 -7 -11 -9
-10 -9 4 0 10 -5 15 -10 12 -6 -3 -13 0 -16 8 -2 7 -18 14 -34 14 -16 0 -42
11 -59 26 -28 23 -35 25 -57 15 -24 -11 -24 -13 -7 -20 11 -5 4 -6 -19 -3 -20
3 -58 15 -83 26 -25 11 -50 17 -56 14 -5 -4 -28 5 -49 19 -22 14 -52 26 -67
26 -16 0 -37 7 -47 15 -11 8 -33 15 -48 15 -16 0 -31 7 -34 15 -4 8 -17 15
-29 15 -13 0 -27 5 -30 10 -3 6 -23 10 -44 10 -21 0 -41 3 -45 8 -9 8 -44 13
-94 12 -25 0 -35 5 -42 22 -7 19 -9 20 -9 4 -1 -14 -6 -17 -23 -13 -12 3 -30
2 -40 -4 -12 -6 -18 -6 -18 1 0 5 8 10 17 10 14 0 15 2 4 13 -10 10 -16 8 -31
-10 -22 -28 -30 -29 -30 -5 0 29 -39 42 -83 27 -27 -9 -37 -10 -35 -1 2 6 -2
11 -7 11 -5 0 -8 -6 -7 -14 3 -11 -5 -12 -35 -6 -42 8 -41 8 -100 0 -27 -4
-44 -2 -49 7 -4 6 -2 14 4 16 7 2 10 8 6 13 -3 5 0 9 5 9 6 0 11 6 11 14 0 14
95 92 150 123 42 23 173 70 215 77 17 2 95 3 175 1 131 -3 157 -7 270 -39z
m-81 -472 c12 -10 -9 -10 -54 2 l-50 13 50 -6 c28 -3 52 -7 54 -9z m851 -223
c0 -6 -4 -13 -10 -16 -5 -3 -10 1 -10 9 0 9 5 16 10 16 6 0 10 -4 10 -9z"/>
<path d="M12807 11139 c7 -7 15 -10 18 -7 3 3 -2 9 -12 12 -14 6 -15 5 -6 -5z"/>
<path d="M17290 9111 c0 -5 5 -13 10 -16 6 -3 10 -2 10 4 0 5 -4 13 -10 16 -5
3 -10 2 -10 -4z"/>
<path d="M14415 11250 c-19 -8 -19 -9 3 -9 12 -1 22 4 22 9 0 6 -1 10 -2 9 -2
0 -12 -4 -23 -9z"/>
<path d="M14155 11240 c-3 -5 3 -10 14 -10 12 0 21 5 21 10 0 6 -6 10 -14 10
-8 0 -18 -4 -21 -10z"/>
<path d="M26701 7322 c-1 -7 -5 -11 -10 -7 -6 3 -9 -19 -9 -52 1 -32 3 -50 5
-40 4 13 8 15 17 8 10 -8 13 -3 14 24 1 19 -3 45 -8 57 -5 13 -9 17 -9 10z m9
-42 c0 -11 -2 -20 -4 -20 -2 0 -6 9 -9 20 -3 11 -1 20 4 20 5 0 9 -9 9 -20z"/>
<path d="M26740 7253 c0 -13 5 -23 10 -23 13 0 13 11 0 30 -8 12 -10 11 -10
-7z"/>
<path d="M25372 6410 c0 -14 2 -19 5 -12 2 6 2 18 0 25 -3 6 -5 1 -5 -13z"/>
<path d="M25440 6310 c0 -5 7 -7 15 -4 8 4 15 8 15 10 0 2 -7 4 -15 4 -8 0
-15 -4 -15 -10z"/>
<path d="M25090 6139 c0 -5 5 -7 10 -4 6 3 10 8 10 11 0 2 -4 4 -10 4 -5 0
-10 -5 -10 -11z"/>
<path d="M24908 6063 c7 -3 16 -2 19 1 4 3 -2 6 -13 5 -11 0 -14 -3 -6 -6z"/>
<path d="M24726 6006 c3 -8 15 -11 30 -8 39 7 39 22 0 22 -26 0 -34 -4 -30
-14z"/>
<path d="M24612 5976 c-9 -5 -20 -14 -23 -19 -4 -5 -14 -7 -23 -4 -16 6 -117
-20 -126 -33 -3 -4 -21 -9 -40 -13 -57 -9 -95 -26 -83 -38 7 -7 29 -5 69 4
104 26 199 55 229 71 17 9 37 16 45 16 8 1 26 7 40 15 24 14 23 15 -23 12 -26
-1 -56 -6 -65 -11z"/>
<path d="M24210 5840 c0 -13 40 -13 60 0 11 7 5 10 -22 10 -21 0 -38 -4 -38
-10z"/>
<path d="M24080 5789 c0 -5 5 -7 10 -4 6 3 10 8 10 11 0 2 -4 4 -10 4 -5 0
-10 -5 -10 -11z"/>
<path d="M20258 5043 c12 -2 32 -2 45 0 12 2 2 4 -23 4 -25 0 -35 -2 -22 -4z"/>
<path d="M20400 5040 c0 -11 53 -40 72 -40 9 0 9 3 -2 10 -13 8 -12 10 5 10
31 0 4 17 -37 23 -21 3 -38 2 -38 -3z"/>
<path d="M20520 5014 l-25 -14 30 1 c29 0 81 17 58 18 -6 1 -17 3 -25 5 -7 2
-24 -2 -38 -10z"/>
<path d="M27430 3734 l-25 -14 29 2 c16 2 31 9 34 16 5 16 -7 15 -38 -4z"/>
<path d="M4087 6846 c-3 -8 -3 -31 0 -50 4 -27 10 -36 25 -36 13 0 18 5 15 14
-3 8 -9 31 -13 50 -7 38 -18 46 -27 22z"/>
<path d="M23366 23315 c-3 -9 0 -15 9 -15 8 0 15 7 15 15 0 8 -4 15 -9 15 -5
0 -11 -7 -15 -15z"/>
<path d="M23400 23234 c-7 -25 -19 -48 -26 -51 -10 -4 -11 -10 -3 -24 5 -10
13 -19 17 -19 9 0 32 49 32 67 0 8 6 20 12 27 11 11 15 11 25 -3 17 -23 28 -5
15 24 -8 17 -20 25 -35 25 -20 0 -27 -8 -37 -46z"/>
<path d="M23330 23262 c0 -5 7 -15 15 -22 8 -7 15 -8 15 -2 0 5 -7 15 -15 22
-8 7 -15 8 -15 2z"/>
<path d="M23531 23231 c-10 -7 -10 -10 -1 -16 6 -4 16 -3 22 3 13 13 -4 23
-21 13z"/>
<path d="M23430 23170 c-11 -7 -12 -12 -4 -20 8 -8 13 -6 17 9 3 12 4 21 4 21
-1 0 -9 -5 -17 -10z"/>
<path d="M23520 23130 c0 -5 5 -10 11 -10 5 0 7 5 4 10 -3 6 -8 10 -11 10 -2
0 -4 -4 -4 -10z"/>
<path d="M23710 23130 c0 -5 5 -10 10 -10 6 0 10 5 10 10 0 6 -4 10 -10 10 -5
0 -10 -4 -10 -10z"/>
<path d="M23761 23074 c0 -11 3 -14 6 -6 3 7 2 16 -1 19 -3 4 -6 -2 -5 -13z"/>
<path d="M23932 23065 c0 -16 2 -22 5 -12 2 9 2 23 0 30 -3 6 -5 -1 -5 -18z"/>
<path d="M23564 23056 c-7 -19 12 -46 33 -46 21 0 13 54 -10 58 -9 2 -20 -4
-23 -12z"/>
<path d="M24038 23014 c-9 -8 3 -44 13 -38 11 7 12 44 1 44 -5 0 -11 -3 -14
-6z"/>
<path d="M24450 22999 c0 -5 5 -7 10 -4 6 3 10 8 10 11 0 2 -4 4 -10 4 -5 0
-10 -5 -10 -11z"/>
<path d="M23764 22938 c3 -13 6 -32 6 -43 0 -33 13 -44 58 -50 33 -4 42 -2 42
10 0 8 7 15 15 15 8 0 15 7 15 15 0 8 -7 15 -15 15 -8 0 -15 -7 -15 -15 0 -18
-12 -19 -27 -4 -8 8 -13 8 -17 0 -13 -20 -26 -11 -26 18 0 40 -9 61 -27 61
-11 0 -14 -6 -9 -22z"/>
<path d="M23902 22934 c2 -11 11 -20 22 -22 13 -3 17 1 14 14 -2 11 -11 20
-22 22 -13 3 -17 -1 -14 -14z"/>
<path d="M23973 22903 c-24 -9 -13 -23 18 -23 27 0 30 2 19 15 -13 16 -17 17
-37 8z"/>
<path d="M24128 22883 c6 -2 18 -2 25 0 6 3 1 5 -13 5 -14 0 -19 -2 -12 -5z"/>
<path d="M23910 22808 c0 -13 8 -18 30 -18 19 0 30 5 30 14 0 8 -13 16 -30 18
-24 4 -30 1 -30 -14z"/>
<path d="M23985 22731 c-3 -2 -5 -13 -5 -23 0 -14 8 -18 41 -18 36 0 40 2 37
23 -2 18 -10 22 -36 22 -18 1 -35 -1 -37 -4z"/>
<path d="M24242 22669 c2 -6 8 -10 13 -10 5 0 11 4 13 10 2 6 -4 11 -13 11 -9
0 -15 -5 -13 -11z"/>
<path d="M24520 22631 c0 -12 29 -23 41 -15 18 10 9 24 -16 24 -14 0 -25 -4
-25 -9z"/>
<path d="M24817 22520 c3 -11 7 -20 9 -20 2 0 4 9 4 20 0 11 -4 20 -9 20 -5 0
-7 -9 -4 -20z"/>
<path d="M24710 22484 c0 -12 7 -24 15 -28 10 -3 15 -19 15 -46 0 -29 4 -40
15 -40 11 0 15 11 15 40 0 22 -5 40 -11 40 -6 0 -8 8 -5 18 7 22 -4 39 -26 39
-12 0 -18 -8 -18 -23z"/>
<path d="M24640 22489 c0 -5 5 -7 10 -4 6 3 10 8 10 11 0 2 -4 4 -10 4 -5 0
-10 -5 -10 -11z"/>
<path d="M24946 22473 c-11 -11 -6 -23 9 -23 8 0 15 4 15 9 0 13 -16 22 -24
14z"/>
<path d="M24395 22460 c-3 -5 -1 -10 4 -10 6 0 11 5 11 10 0 6 -2 10 -4 10 -3
0 -8 -4 -11 -10z"/>
<path d="M24824 22417 c-8 -21 1 -47 16 -47 19 0 23 31 7 48 -15 14 -17 14
-23 -1z"/>
<path d="M24981 22404 c0 -11 3 -14 6 -6 3 7 2 16 -1 19 -3 4 -6 -2 -5 -13z"/>
<path d="M25170 22384 c0 -8 5 -12 10 -9 6 3 10 10 10 16 0 5 -4 9 -10 9 -5 0
-10 -7 -10 -16z"/>
<path d="M25200 22380 c0 -5 7 -10 16 -10 8 0 12 5 9 10 -3 6 -10 10 -16 10
-5 0 -9 -4 -9 -10z"/>
<path d="M25504 22357 c-3 -9 1 -26 10 -39 16 -23 16 -22 10 12 -8 43 -12 47
-20 27z"/>
<path d="M25730 22335 c0 -8 5 -15 10 -15 6 0 10 7 10 15 0 8 -4 15 -10 15 -5
0 -10 -7 -10 -15z"/>
<path d="M25317 22323 c-6 -10 9 -49 21 -57 6 -3 10 9 10 29 0 23 -5 35 -13
35 -8 0 -16 -3 -18 -7z"/>
<path d="M25362 22310 c0 -14 2 -19 5 -12 2 6 2 18 0 25 -3 6 -5 1 -5 -13z"/>
<path d="M25400 22311 c0 -12 5 -21 10 -21 6 0 10 6 10 14 0 8 -4 18 -10 21
-5 3 -10 -3 -10 -14z"/>
<path d="M24961 22304 c0 -11 3 -14 6 -6 3 7 2 16 -1 19 -3 4 -6 -2 -5 -13z"/>
<path d="M25640 22291 c0 -10 -7 -24 -15 -31 -22 -18 -19 -50 5 -50 17 0 20 7
20 50 0 28 -2 50 -5 50 -3 0 -5 -8 -5 -19z"/>
<path d="M25802 22169 c2 -7 10 -15 17 -17 8 -3 12 1 9 9 -2 7 -10 15 -17 17
-8 3 -12 -1 -9 -9z"/>
<path d="M26013 22133 c9 -2 23 -2 30 0 6 3 -1 5 -18 5 -16 0 -22 -2 -12 -5z"/>
<path d="M25940 22075 c0 -41 4 -55 14 -55 24 0 29 20 10 41 -14 16 -15 24 -6
44 10 21 9 25 -3 25 -11 0 -15 -13 -15 -55z"/>
<path d="M25760 22110 c0 -6 18 -10 40 -10 52 0 52 14 0 17 -22 2 -40 -2 -40
-7z"/>
<path d="M25885 22110 c-3 -5 3 -10 14 -10 12 0 21 5 21 10 0 6 -6 10 -14 10
-8 0 -18 -4 -21 -10z"/>
<path d="M25784 22072 c-18 -12 -11 -76 9 -80 13 -3 17 3 17 27 0 30 1 31 45
31 25 0 45 5 45 10 0 6 -3 10 -7 11 -5 0 -28 2 -53 4 -25 3 -50 1 -56 -3z"/>
<path d="M26127 22073 c-13 -12 -7 -23 13 -23 11 0 20 4 20 9 0 6 19 12 43 14
38 3 36 4 -14 5 -31 1 -59 -1 -62 -5z"/>
<path d="M26160 22035 c0 -16 49 -69 58 -61 3 3 -3 22 -14 41 -19 35 -44 47
-44 20z"/>
<path d="M26416 22013 c9 -52 14 -54 14 -5 0 23 -5 42 -10 42 -7 0 -8 -14 -4
-37z"/>
<path d="M26710 22035 c0 -8 2 -15 4 -15 2 0 6 7 10 15 3 8 1 15 -4 15 -6 0
-10 -7 -10 -15z"/>
<path d="M25886 22014 c-12 -11 -14 -26 -10 -53 5 -30 2 -39 -10 -44 -23 -9
-20 -27 4 -27 11 0 20 6 20 13 0 9 2 9 8 0 4 -6 20 -16 34 -22 23 -9 30 -7 43
12 14 21 14 23 -10 40 -14 10 -25 28 -25 40 -1 21 -21 57 -33 57 -3 0 -13 -7
-21 -16z"/>
<path d="M26270 21981 c0 -24 13 -33 34 -25 12 5 13 10 5 25 -13 25 -39 24
-39 0z"/>
<path d="M26508 21930 c-12 -13 -14 -21 -6 -26 6 -4 17 1 25 11 26 36 10 49
-19 15z"/>
<path d="M26712 21910 c0 -14 2 -19 5 -12 2 6 2 18 0 25 -3 6 -5 1 -5 -13z"/>
<path d="M26628 21870 c2 -16 6 -30 8 -30 2 0 4 14 4 30 0 17 -4 30 -8 30 -5
0 -7 -13 -4 -30z"/>
<path d="M26800 21876 c0 -22 3 -27 11 -19 8 8 8 16 0 30 -9 16 -10 14 -11
-11z"/>
<path d="M26480 21879 c0 -8 7 -24 15 -35 15 -19 15 -19 31 1 14 19 13 20 -8
24 -13 1 -26 8 -30 15 -5 7 -8 6 -8 -5z"/>
<path d="M26835 21771 c-3 -5 -1 -12 5 -16 5 -3 10 -17 10 -31 0 -21 4 -24 40
-24 44 0 56 19 13 21 -26 1 -27 1 -5 7 l23 7 -21 23 c-21 23 -54 29 -65 13z"/>
<path d="M26796 21745 c-3 -8 -1 -15 4 -15 6 0 10 7 10 15 0 8 -2 15 -4 15 -2
0 -6 -7 -10 -15z"/>
<path d="M27351 21744 c0 -11 3 -14 6 -6 3 7 2 16 -1 19 -3 4 -6 -2 -5 -13z"/>
<path d="M26728 21733 c7 -3 16 -2 19 1 4 3 -2 6 -13 5 -11 0 -14 -3 -6 -6z"/>
<path d="M27324 21716 c-8 -22 3 -33 18 -18 9 9 9 15 0 24 -9 9 -13 7 -18 -6z"/>
<path d="M26720 21710 c0 -5 7 -10 16 -10 8 0 12 5 9 10 -3 6 -10 10 -16 10
-5 0 -9 -4 -9 -10z"/>
<path d="M26866 21653 c-11 -11 -6 -23 9 -23 8 0 15 4 15 9 0 13 -16 22 -24
14z"/>
<path d="M27688 21633 c7 -3 16 -2 19 1 4 3 -2 6 -13 5 -11 0 -14 -3 -6 -6z"/>
<path d="M27677 21587 c-4 -10 2 -13 19 -9 13 2 21 8 18 13 -8 14 -31 11 -37
-4z"/>
<path d="M26890 21575 c0 -8 4 -15 10 -15 5 0 7 7 4 15 -4 8 -8 15 -10 15 -2
0 -4 -7 -4 -15z"/>
<path d="M28036 21553 c-3 -3 -3 -10 0 -14 7 -12 34 -11 34 0 0 11 -26 22 -34
14z"/>
<path d="M27095 21527 c-4 -10 -5 -21 -1 -24 10 -10 18 4 13 24 -4 17 -4 17
-12 0z"/>
<path d="M27340 21475 c0 -8 5 -15 10 -15 6 0 10 7 10 15 0 8 -4 15 -10 15 -5
0 -10 -7 -10 -15z"/>
<path d="M27610 21340 c0 -5 9 -10 20 -10 11 0 20 5 20 10 0 6 -9 10 -20 10
-11 0 -20 -4 -20 -10z"/>
<path d="M28510 21301 c0 -16 5 -31 11 -33 9 -3 9 -10 0 -26 -11 -20 -9 -22
12 -22 27 0 52 23 42 40 -3 5 -15 10 -26 10 -14 0 -19 7 -19 30 0 17 -4 30
-10 30 -5 0 -10 -13 -10 -29z"/>
<path d="M28433 21243 c9 -9 19 -14 23 -11 10 10 -6 28 -24 28 -15 0 -15 -1 1
-17z"/>
<path d="M28854 21213 c3 -21 6 -48 6 -60 0 -13 5 -23 11 -23 8 0 9 11 5 31
-3 17 -6 44 -6 60 0 16 -5 29 -11 29 -7 0 -9 -13 -5 -37z"/>
<path d="M28951 21214 c0 -11 3 -14 6 -6 3 7 2 16 -1 19 -3 4 -6 -2 -5 -13z"/>
<path d="M29040 21210 c0 -5 5 -10 11 -10 5 0 7 5 4 10 -3 6 -8 10 -11 10 -2
0 -4 -4 -4 -10z"/>
<path d="M29431 21204 c0 -11 3 -14 6 -6 3 7 2 16 -1 19 -3 4 -6 -2 -5 -13z"/>
<path d="M29080 21140 c0 -5 5 -10 11 -10 5 0 7 5 4 10 -3 6 -8 10 -11 10 -2
0 -4 -4 -4 -10z"/>
<path d="M29110 21095 c0 -17 5 -25 13 -22 6 2 12 12 12 22 0 10 -6 20 -12 23
-8 2 -13 -6 -13 -23z"/>
<path d="M29546 21094 c-4 -14 -5 -28 -3 -31 3 -2 8 8 11 23 4 14 5 28 3 31
-3 2 -8 -8 -11 -23z"/>
<path d="M29378 21093 c6 -2 18 -2 25 0 6 3 1 5 -13 5 -14 0 -19 -2 -12 -5z"/>
<path d="M29966 21061 c-4 -5 -2 -20 3 -33 7 -16 10 -18 10 -6 1 9 4 23 7 32
6 17 -11 23 -20 7z"/>
<path d="M29630 21040 c0 -5 5 -10 11 -10 5 0 7 5 4 10 -3 6 -8 10 -11 10 -2
0 -4 -4 -4 -10z"/>
<path d="M29306 21015 c-3 -9 -6 -22 -5 -28 0 -7 5 -1 10 12 5 13 8 26 5 28
-2 2 -6 -3 -10 -12z"/>
<path d="M29810 20999 c0 -5 5 -7 10 -4 6 3 10 8 10 11 0 2 -4 4 -10 4 -5 0
-10 -5 -10 -11z"/>
<path d="M29840 20981 c0 -21 5 -31 15 -31 8 0 15 8 15 19 0 10 -7 24 -15 31
-13 11 -15 8 -15 -19z"/>
<path d="M30153 21003 c-7 -2 -13 -16 -13 -29 0 -17 6 -24 20 -24 21 0 27 15
9 25 -6 4 -8 13 -5 21 3 8 4 14 3 13 -1 0 -8 -3 -14 -6z"/>
<path d="M30520 20950 c0 -5 7 -10 15 -10 8 0 15 5 15 10 0 6 -7 10 -15 10 -8
0 -15 -4 -15 -10z"/>
<path d="M30464 20915 c-5 -27 -2 -41 9 -52 13 -13 14 -10 10 33 -7 62 -10 65
-19 19z"/>
<path d="M30585 20924 c0 -16 6 -24 18 -24 9 0 17 7 17 15 0 8 -8 19 -17 24
-15 7 -18 5 -18 -15z"/>
<path d="M30340 20915 c0 -8 -4 -15 -10 -15 -5 0 -10 -7 -10 -15 0 -19 4 -19
41 1 25 12 28 18 18 30 -15 18 -39 18 -39 -1z"/>
<path d="M30420 20910 c0 -11 5 -20 10 -20 6 0 10 9 10 20 0 11 -4 20 -10 20
-5 0 -10 -9 -10 -20z"/>
<path d="M30555 20889 c-4 -6 -5 -12 -2 -15 2 -3 7 2 10 11 7 17 1 20 -8 4z"/>
<path d="M30647 20866 c-7 -8 -26 -12 -43 -10 l-29 4 29 -10 c16 -5 33 -7 38
-4 4 3 8 -2 8 -10 0 -23 27 -20 40 4 14 26 -21 48 -43 26z"/>
<path d="M31346 20861 c-3 -5 0 -11 8 -14 15 -6 26 1 26 15 0 11 -27 10 -34
-1z"/>
<path d="M31426 20834 c-10 -25 -7 -84 4 -84 6 0 10 -13 10 -30 0 -34 23 -41
39 -12 8 14 4 25 -16 46 -19 21 -24 35 -21 62 4 35 -5 46 -16 18z"/>
<path d="M30872 20802 c-16 -34 -4 -44 39 -35 l35 8 -31 27 -30 26 -13 -26z"/>
<path d="M30961 20814 c0 -11 3 -14 6 -6 3 7 2 16 -1 19 -3 4 -6 -2 -5 -13z"/>
<path d="M31043 20813 c-18 -7 7 -43 29 -43 21 0 24 20 6 38 -13 13 -16 13
-35 5z"/>
<path d="M31120 20789 c0 -5 5 -7 10 -4 6 3 10 8 10 11 0 2 -4 4 -10 4 -5 0
-10 -5 -10 -11z"/>
<path d="M31970 20780 c0 -5 5 -10 11 -10 5 0 7 5 4 10 -3 6 -8 10 -11 10 -2
0 -4 -4 -4 -10z"/>
<path d="M32000 20754 c0 -8 5 -12 10 -9 6 3 10 10 10 16 0 5 -4 9 -10 9 -5 0
-10 -7 -10 -16z"/>
<path d="M32194 20726 c-7 -28 2 -49 17 -41 12 8 12 52 -1 60 -5 3 -12 -5 -16
-19z"/>
<path d="M31521 20723 c0 -12 -4 -30 -7 -40 -5 -17 -5 -17 6 0 6 10 9 28 7 40
-4 22 -4 22 -6 0z"/>
<path d="M31637 20724 c-4 -4 -7 -22 -7 -41 0 -26 4 -32 18 -30 27 4 42 17 42
34 0 9 -3 14 -6 10 -4 -3 -14 3 -23 14 -9 11 -20 17 -24 13z"/>
<path d="M32065 20717 c-4 -10 -5 -21 -1 -24 10 -10 18 4 13 24 -4 17 -4 17
-12 0z"/>
<path d="M32250 20706 c0 -9 5 -16 10 -16 6 0 10 4 10 9 0 6 -4 13 -10 16 -5
3 -10 -1 -10 -9z"/>
<path d="M33607 20714 c-8 -8 1 -24 14 -24 5 0 9 7 9 15 0 15 -12 20 -23 9z"/>
<path d="M32850 20704 c0 -13 21 -44 30 -44 17 0 11 25 -10 38 -11 7 -20 10
-20 6z"/>
<path d="M31940 20680 c0 -5 5 -10 10 -10 6 0 10 5 10 10 0 6 -4 10 -10 10 -5
0 -10 -4 -10 -10z"/>
<path d="M32340 20679 c0 -5 5 -7 10 -4 6 3 10 8 10 11 0 2 -4 4 -10 4 -5 0
-10 -5 -10 -11z"/>
<path d="M32390 20679 c0 -5 5 -7 10 -4 6 3 10 8 10 11 0 2 -4 4 -10 4 -5 0
-10 -5 -10 -11z"/>
<path d="M33845 20680 c4 -6 11 -8 16 -5 14 9 11 15 -7 15 -8 0 -12 -5 -9 -10z"/>
<path d="M31707 20663 c-19 -3 -27 -10 -25 -20 5 -26 24 -26 42 2 9 14 15 24
14 24 -2 -1 -16 -4 -31 -6z"/>
<path d="M33488 20653 c6 -2 18 -2 25 0 6 3 1 5 -13 5 -14 0 -19 -2 -12 -5z"/>
<path d="M34102 20640 c0 -14 2 -19 5 -12 2 6 2 18 0 25 -3 6 -5 1 -5 -13z"/>
<path d="M32720 20640 c0 -5 9 -10 20 -10 11 0 20 5 20 10 0 6 -9 10 -20 10
-11 0 -20 -4 -20 -10z"/>
<path d="M33735 20639 c-4 -6 -5 -13 -2 -16 7 -7 27 6 27 18 0 12 -17 12 -25
-2z"/>
<path d="M34173 20636 c19 -15 69 -15 77 0 3 5 -17 10 -45 12 -44 2 -48 1 -32
-12z"/>
<path d="M33411 20621 c-12 -22 -5 -31 26 -31 26 0 30 15 9 36 -19 18 -23 18
-35 -5z"/>
<path d="M33585 20630 c4 -6 11 -8 16 -5 14 9 11 15 -7 15 -8 0 -12 -5 -9 -10z"/>
<path d="M33212 20615 c-11 -12 -10 -15 3 -15 8 0 15 7 15 15 0 18 -2 18 -18
0z"/>
<path d="M32860 20600 c0 -5 5 -10 10 -10 6 0 10 5 10 10 0 6 -4 10 -10 10 -5
0 -10 -4 -10 -10z"/>
<path d="M33600 20590 c0 -11 4 -20 10 -20 5 0 14 9 20 20 9 17 8 20 -10 20
-13 0 -20 -7 -20 -20z"/>
<path d="M34328 20603 c7 -3 16 -2 19 1 4 3 -2 6 -13 5 -11 0 -14 -3 -6 -6z"/>
<path d="M34387 20596 c-5 -13 10 -36 24 -36 16 0 15 27 -1 38 -14 8 -19 8
-23 -2z"/>
<path d="M33428 20485 c-23 -30 -22 -35 2 -35 16 0 20 7 20 30 0 36 0 36 -22
5z"/>
</g>
</svg>
